<svg width="50" height="46" viewBox="0 0 50 46" fill="none" xmlns="http://www.w3.org/2000/svg">
<path d="M41.6339 44.4462C41.6339 44.4006 41.6293 44.3553 41.6214 44.31C41.5002 42.9248 41.115 41.1849 40.6147 39.6455C40.3853 38.9395 40.0284 37.8276 41.2519 36.2538C42.1632 35.0815 38.4438 35.1887 37.2539 34.3005C35.4059 32.9213 32.322 33.5716 30.2624 34.4663C29.3994 34.8413 26.1956 36.2952 26.6587 37.3551C27.4468 39.1579 30.83 38.9998 32.9358 39.7994C34.6953 40.4676 35.5968 41.0223 36.9923 44.446C36.9923 44.789 37.2189 45.1318 37.672 45.3934C38.5784 45.9166 40.0477 45.9166 40.954 45.3934C41.4074 45.132 41.6339 44.7892 41.6339 44.4462Z" fill="#E0E0E0"/>
<path opacity="0.1" d="M37.2536 34.301C35.4056 32.9218 32.3217 33.5721 30.2621 34.4668C29.3991 34.8416 26.1952 36.2957 26.6584 37.3556C27.4465 39.1584 30.8297 39.0003 32.9355 39.7999C33.2909 39.935 33.6109 40.0655 33.9074 40.2158C33.9773 40.1494 34.0469 40.0822 34.116 40.0138C34.3331 39.7987 34.5566 39.5721 34.8454 39.4727C35.0852 39.3902 35.3457 39.4044 35.5992 39.4135C37.0641 39.4652 38.8776 39.3896 40.4202 38.8979C40.3138 38.2298 40.3953 37.3555 41.2516 36.2539C42.1631 35.082 38.4435 35.189 37.2536 34.301Z" fill="black"/>
<path d="M38.7377 37.3435C39.9127 36.5476 40.7093 35.2854 41.1905 33.9502C41.6717 32.6151 41.8651 31.1966 42.0502 29.7895C42.1194 29.2627 42.1774 28.6852 41.8895 28.2387C41.5828 27.7633 40.9526 27.5818 40.391 27.6517C39.8294 27.7216 39.3173 27.9967 38.8201 28.2669C37.1381 29.1809 35.4438 30.1031 33.9754 31.3309C32.7121 32.3873 29.5193 35.5968 31.16 37.3305C32.7982 39.0618 36.9944 38.5245 38.7377 37.3435Z" fill="#455A64"/>
<path d="M39.1938 35.8837C38.5457 36.9846 37.3369 38.1485 36.062 38.282C39.91 38.1366 43.4159 35.7635 45.6697 32.2699C47.9236 28.7764 48.2282 26.7318 48.4097 24.133C48.4618 23.3875 48.411 21.6854 47.8129 21.2375C47.4292 20.9501 46.8983 21.7527 46.438 21.8868C45.9777 22.0207 45.5745 22.3008 45.1976 22.5973C43.8883 23.6272 42.7936 24.8997 41.7082 26.1633C40.6095 27.4424 38.715 28.9828 39.1844 30.8776C39.3871 31.6955 39.9017 32.5676 39.9135 33.4069C39.9235 34.1257 39.6849 34.9213 39.3693 35.5601C39.3166 35.6667 39.258 35.7749 39.1938 35.8837Z" fill="#37474F"/>
<path d="M36.0338 2.38142C34.2705 -0.723517 31.8961 -0.175615 31.3482 0.615905C29.7849 -0.286756 28.4867 0.0898164 28.0606 0.931174C25.1718 -0.736734 23.3728 0.356045 23.1902 1.76441C19.0503 0.128827 17.2848 2.25961 17.4066 3.72084C14.3016 3.11195 13.145 4.3853 13.084 5.69685C9.79645 5.42553 9.24855 7.19104 9.37036 8.28701C5.96098 8.28701 5.29127 10.6014 5.59571 12.0925C3.09966 12.9613 2.52947 15.4319 3.33197 16.0298C0.481643 17.1756 0.299009 20.6865 0.968719 21.762C-0.492352 23.7507 -0.0438078 26.1251 0.645169 26.5512C-0.614161 28.3167 0.96872 29.6627 1.82106 29.7811C0.907895 31.7869 1.84081 33.0582 3.74867 33.4271C4.56073 37.2053 8.62883 36.8489 9.3952 36.5096L36.0338 2.38142Z" fill="#0E7490"/>
<path opacity="0.3" d="M36.0338 2.38142C34.2705 -0.723517 31.8961 -0.175615 31.3482 0.615905C29.7849 -0.286756 28.4867 0.0898164 28.0606 0.931174C25.1718 -0.736734 23.3728 0.356045 23.1902 1.76441C19.0503 0.128827 17.2848 2.25961 17.4066 3.72084C14.3016 3.11195 13.145 4.3853 13.084 5.69685C9.79645 5.42553 9.24855 7.19104 9.37036 8.28701C5.96098 8.28701 5.29127 10.6014 5.59571 12.0925C3.09966 12.9613 2.52947 15.4319 3.33197 16.0298C0.481643 17.1756 0.299009 20.6865 0.968719 21.762C-0.492352 23.7507 -0.0438078 26.1251 0.645169 26.5512C-0.614161 28.3167 0.96872 29.6627 1.82106 29.7811C0.907895 31.7869 1.84081 33.0582 3.74867 33.4271C4.56073 37.2053 8.62883 36.8489 9.3952 36.5096L36.0338 2.38142Z" fill="white"/>
<path opacity="0.2" d="M23.0668 2.20987C22.1888 1.8637 21.1513 1.62805 20.2058 1.66865C19.3592 1.70511 18.3247 2.45269 18.7004 3.16714C18.7818 3.32191 18.9294 3.47509 19.1593 3.61919C19.6867 3.94942 20.1642 3.75294 20.5935 3.38783C21.1322 2.92989 21.6372 2.77958 22.3461 2.74805C22.7426 2.73038 23.1389 2.71286 23.5352 2.69519C23.5491 2.45444 23.2911 2.29824 23.0668 2.20987ZM26.9212 0.721566C26.3002 0.531767 24.2207 0.125895 24.404 1.38921C24.4097 1.42853 24.4167 1.4685 24.4357 1.50321C24.4597 1.547 24.5008 1.57885 24.5438 1.60432C24.7855 1.74715 25.0937 1.71483 25.3592 1.62407C25.6248 1.53331 25.8712 1.38952 26.1419 1.31532C26.7696 1.1432 27.307 1.43236 27.9329 1.37981C27.7167 1.02983 27.3146 0.841942 26.9212 0.721566ZM14.2903 6.82842C13.2943 6.19501 10.2869 5.66653 10.6222 7.67933C10.6865 7.95145 10.8897 8.2258 11.1691 8.23487C11.3964 8.2422 11.5865 8.07724 11.7677 7.93982C12.3801 7.47536 13.1617 7.23891 13.929 7.28604C14.0456 7.2932 14.1666 7.3061 14.2758 7.26454C14.3849 7.22298 14.476 7.10563 14.4432 6.99353C14.4215 6.91981 14.355 6.8695 14.2903 6.82842ZM7.95736 9.07894C7.47618 9.19119 6.91044 9.64547 6.71682 10.0994C6.63004 10.3024 6.62447 10.552 6.75121 10.7327C6.89484 10.9378 7.17858 11.0089 7.42363 10.9575C7.66852 10.9061 7.88014 10.7531 8.06404 10.5832C8.24795 10.4134 8.41339 10.2227 8.61195 10.0701C8.79601 9.92889 9.0046 9.82333 9.19647 9.69276C9.3092 9.61601 9.42719 9.50694 9.41589 9.37096C9.37751 8.90872 8.25607 9.0092 7.95736 9.07894ZM5.69968 17.0402C4.46726 16.2623 2.89679 16.6789 2.06404 17.8516C1.71453 18.3437 1.5303 18.9469 1.52569 19.5493C1.5233 19.8464 1.55865 20.1577 1.65418 20.4403C1.94732 21.306 2.26689 19.8042 2.45924 19.5687C2.77769 19.1791 3.25983 18.9181 3.76793 18.9136C4.17666 18.9101 4.58556 18.9066 4.9943 18.9031C5.48583 18.899 6.0729 18.8401 6.30331 18.4058C6.4318 18.1637 6.40203 17.8584 6.27401 17.6158C6.14631 17.3733 5.93151 17.1865 5.69968 17.0402Z" fill="white"/>
<path opacity="0.3" d="M9.39518 36.5094L13.0345 31.8469C12.9985 30.9722 12.8732 30.1067 12.6065 29.2723C12.0349 27.4844 10.7457 25.8501 8.97068 25.2399C8.90731 25.2181 8.84203 25.1974 8.77499 25.1985C8.30734 25.2066 7.86278 26.1742 7.48955 26.4373C7.3437 26.54 5.81097 27.3407 5.71225 27.0965C5.90141 27.5643 5.48137 28.0718 5.01786 28.2709C4.32936 28.5668 3.50886 28.466 2.85396 28.102C2.41576 27.8586 2.03011 27.4965 1.73936 27.0694C1.21232 26.2949 0.997683 25.3065 1.34846 24.4218C1.53316 23.9557 1.94079 23.5427 2.44044 23.5034C1.82328 23.1015 1.25627 22.6247 0.747377 22.0923C-0.440301 24.0052 -0.00608705 26.1481 0.644994 26.5508C-0.614336 28.3163 0.968704 29.6623 1.82089 29.7807C0.90772 31.7865 1.84063 33.0578 3.7485 33.4267C4.56056 37.2052 8.62866 36.8487 9.39518 36.5094Z" fill="#0E7490"/>
<path opacity="0.5" d="M8.27758 36.7033C8.79156 36.6831 9.2003 36.596 9.39519 36.5098L34.9186 3.81058L33.3575 2.33263C31.5313 1.49557 29.9865 1.82836 29.1098 2.69822C28.698 2.50635 27.7992 2.38422 27.34 2.35206C27.1233 1.97564 26.7644 1.71594 26.5919 1.72279C26.7408 1.97628 27.0129 2.38279 26.8628 2.40221C25.4358 2.58723 24.0761 3.34802 23.7612 4.16406C23.1553 4.07585 22.4944 4.45736 22.4944 4.45736L22.2421 3.85437C22.2421 3.85437 19.6404 4.54398 18.3212 6.7117L18.8915 6.78208C18.8915 6.78208 18.4708 7.27011 18.2328 7.69748C18.2328 7.69748 15.0172 7.41039 13.4294 9.71282C13.4294 9.71282 13.8609 9.93622 14.5409 10.0354C14.5409 10.0354 10.7696 11.4197 10.8887 14.6353C10.8887 14.6353 10.4918 14.5248 9.97558 15.0961C9.97558 15.0961 9.55426 14.5236 8.21675 14.1626C9.5834 15.2008 9.20078 17.3745 8.75462 17.9699C8.30847 18.5654 7.1969 19.9585 7.35581 21.346C7.35581 21.346 5.68854 21.823 4.33877 20.9285C4.33877 20.9285 5.0408 22.1778 6.77383 22.416C6.00604 24.2024 6.23166 25.9456 6.77383 26.7611C6.77383 26.7611 5.27996 28.1324 3.24121 27.1798C4.00343 28.4999 6.12498 28.331 6.12498 28.331C6.12498 28.331 5.3497 30.128 6.51142 31.4724C6.51142 31.4724 6.00588 31.8276 5.09287 31.7604C5.80748 32.4594 7.27556 32.0625 7.27556 32.0625C7.27556 32.0625 7.4351 32.6976 7.71296 33.0153C7.71264 33.0156 6.73816 34.9012 8.27758 36.7033Z" fill="#0E7490"/>
<path d="M3.44102 16.004C3.76935 15.9354 4.10564 15.8967 4.44097 15.8864C5.14842 15.8649 5.83007 16.0091 6.52032 16.1427C6.57701 16.1537 6.56411 16.0378 6.53242 16.0174C5.87927 15.5982 5.08648 15.4372 4.31836 15.4203C3.916 15.4114 3.51522 15.4466 3.1205 15.5252C3.09295 15.5308 3.06461 15.5373 3.03674 15.5429C3.08897 15.7518 3.18721 15.9219 3.33179 16.0297C3.33036 16.0303 3.32908 16.0311 3.32765 16.0316C3.36555 16.0228 3.40297 16.012 3.44102 16.004Z" fill="#0E7490"/>
<path d="M5.57865 27.7456C6.72525 27.545 7.66597 26.828 8.31434 25.8846C8.47373 25.6526 8.61719 25.4101 8.75222 25.1633C8.88199 24.9262 9.11064 24.6197 9.06749 24.3398C9.04456 24.1915 8.92323 24.0186 8.76639 23.9893C8.4957 23.9387 8.30351 24.2901 8.20017 24.482C7.64208 25.5174 7.01186 26.5054 5.86701 26.9509C4.68141 27.4124 3.42048 27.1431 2.35907 26.5016C2.2785 26.4529 2.2629 26.6032 2.30159 26.6467C3.11493 27.5624 4.37362 27.9565 5.57865 27.7456Z" fill="#0E7490"/>
<path d="M9.79291 8.6019C10.2069 8.98707 10.5484 9.48816 10.7303 10.0236C10.7414 10.0568 10.7688 10.0099 10.7648 9.99116C10.6373 9.39883 10.4516 8.83421 10.0367 8.3742C9.84466 8.16131 9.61378 7.97725 9.36204 7.83203C9.35074 7.99078 9.35456 8.14444 9.37032 8.28663C9.36666 8.28663 9.36348 8.2871 9.35981 8.2871C9.51522 8.3777 9.66314 8.4812 9.79291 8.6019Z" fill="#0E7490"/>
<path d="M6.19758 11.9692C6.8657 11.8756 7.52299 11.8944 8.18156 12.0429C8.21977 12.0515 8.22948 11.9577 8.19637 11.9455C7.5429 11.7023 6.82128 11.5777 6.12386 11.6093C5.92976 11.6181 5.73503 11.6383 5.54156 11.6671C5.55176 11.8136 5.56816 11.9573 5.5957 12.0926C5.58758 12.0955 5.58042 12.0993 5.5723 12.1022C5.77818 12.0471 5.98549 11.9988 6.19758 11.9692Z" fill="#0E7490"/>
<path d="M10.2999 19.9732C10.3606 19.7065 9.95423 19.4803 9.75121 19.6489C9.53116 19.8317 9.34948 20.0522 9.12816 20.2337C8.86543 20.4492 8.57484 20.6289 8.27008 20.7785C7.61741 21.0983 6.88305 21.2744 6.15395 21.2338C5.06961 21.1735 3.89626 20.6345 3.35441 19.65C3.28594 19.5257 3.21286 19.6901 3.25187 19.7736C3.82572 21.0023 4.96292 21.8136 6.33738 21.89C7.11616 21.9333 7.89558 21.7513 8.60079 21.4252C9.1807 21.1569 10.1451 20.6539 10.2999 19.9732Z" fill="#0E7490"/>
<path d="M7.208 31.4498C7.52932 31.1984 7.80287 30.8752 7.98551 30.5096C8.09076 30.2986 8.16432 30.0744 8.21734 29.845C8.2761 29.5905 8.36272 29.3175 8.21639 29.0815C8.15031 28.975 7.96656 28.863 7.85223 28.9729C7.67215 29.146 7.66944 29.4232 7.61419 29.6557C7.56897 29.8464 7.5099 30.0324 7.42359 30.2087C7.26023 30.5427 7.02282 30.839 6.7265 31.064C6.09245 31.5457 5.31988 31.6715 4.54715 31.5567C4.48617 31.5476 4.49938 31.6723 4.5368 31.6931C5.37258 32.1576 6.46361 32.0325 7.208 31.4498Z" fill="#0E7490"/>
<path d="M2.90072 29.7702C2.69452 29.8213 2.48068 29.8328 2.26827 29.8342C2.14933 29.835 2.04042 29.8075 1.92386 29.7965C1.8874 29.793 1.85141 29.7849 1.81495 29.7802C1.81686 29.7806 1.81893 29.7812 1.82084 29.7815C1.76909 29.895 1.72531 30.0054 1.68518 30.1141C2.17735 30.206 2.70424 30.1883 3.14482 29.931C3.23622 29.8777 3.32347 29.815 3.39242 29.7345C3.42633 29.6951 3.45563 29.6509 3.4776 29.6038C3.50053 29.5551 3.51566 29.503 3.52028 29.4494C3.49735 29.4435 3.47617 29.4619 3.45913 29.4785C3.30644 29.6261 3.10708 29.7191 2.90072 29.7702Z" fill="#0E7490"/>
<path d="M2.48851 23.6798C2.69089 23.7887 2.89661 23.898 3.11125 23.9805C3.32445 24.0621 3.53336 24.1093 3.75341 24.1617C3.76918 24.1655 3.77093 24.1308 3.7609 24.1241C3.0423 23.6442 2.26225 23.2251 1.6454 22.6101C1.38793 22.3535 1.15052 22.0759 0.968524 21.7596C0.967569 21.7589 0.967091 21.758 0.966136 21.7573C0.966932 21.7586 0.967569 21.7605 0.968524 21.7619C0.878402 21.8845 0.795922 22.0086 0.719971 22.1336C0.90563 22.4057 1.12043 22.6593 1.36213 22.8821C1.69715 23.1909 2.08789 23.4641 2.48851 23.6798Z" fill="#0E7490"/>
<path d="M8.76586 31.8705C8.57479 31.9789 8.54279 32.2047 8.49629 32.4031C8.46126 32.5523 8.41827 32.6996 8.36461 32.8432C8.25936 33.1259 8.10619 33.4051 7.9019 33.629C7.72595 33.822 7.49714 34.0037 7.2505 34.0955C7.12566 34.142 6.99939 34.1637 6.86771 34.1775C6.80498 34.1842 6.7381 34.1855 6.676 34.1951C6.61725 34.2041 6.58636 34.2419 6.52872 34.2581C6.51264 34.2627 6.50499 34.2959 6.51694 34.3076C6.60053 34.3895 6.64862 34.4444 6.76231 34.4766C6.83619 34.4976 6.91055 34.5118 6.98745 34.5157C7.1505 34.5242 7.31514 34.503 7.4731 34.4635C7.82754 34.3748 8.14058 34.199 8.39582 33.9365C8.64071 33.6846 8.81013 33.377 8.93496 33.0504C8.99547 32.8919 9.04403 32.7289 9.08352 32.5639C9.10358 32.4805 9.11903 32.388 9.11823 32.3015C9.1168 32.1515 9.05598 32.0417 8.96522 31.9261C8.92175 31.8703 8.83162 31.8332 8.76586 31.8705Z" fill="#0E7490"/>
<path d="M26.3895 4.1418C26.5075 4.0961 26.6393 4.03783 26.7221 3.94054C26.7927 3.85758 26.8423 3.74994 26.8936 3.65425C27.0001 3.45601 27.0907 3.25618 27.1047 3.02912C27.1347 2.54666 26.9508 2.04589 26.5916 1.72282C26.4947 1.63572 26.4498 1.81278 26.5003 1.8803C26.6102 2.02742 26.6559 2.21085 26.6917 2.3895C26.728 2.57023 26.7457 2.76672 26.7011 2.94712C26.6605 3.1116 26.5884 3.25936 26.508 3.40776C26.4605 3.49534 26.3925 3.5861 26.3635 3.6818C26.328 3.79899 26.3387 3.92589 26.3199 4.04643C26.3143 4.08432 26.337 4.16218 26.3895 4.1418Z" fill="#0E7490"/>
<path d="M13.0838 5.6969C13.061 5.69499 13.0414 5.69546 13.0187 5.69387C13.3324 5.73798 13.6456 5.80422 13.9427 5.91153C14.4369 6.09019 14.8993 6.351 15.2928 6.69987C15.353 6.75321 15.3783 6.60911 15.337 6.56898C14.8692 6.1128 14.3356 5.76027 13.7347 5.5055C13.5413 5.4235 13.3408 5.36379 13.1376 5.31348C13.1098 5.43974 13.0899 5.56792 13.0838 5.6969Z" fill="#0E7490"/>
<path d="M7.33128 14.0454C7.24625 14.0673 7.26249 14.2594 7.34991 14.2635C8.16308 14.302 9.03756 14.5622 9.58307 15.2009C9.85264 15.5163 10.0557 15.9046 10.1657 16.3041C10.2203 16.5022 10.2547 16.7037 10.2642 16.9089C10.2799 17.2444 10.252 17.5754 10.387 17.8909C10.4281 17.9865 10.6203 18.1193 10.7188 18.016C10.7693 17.9631 10.8101 17.9359 10.8481 17.867C10.8895 17.792 10.9201 17.7197 10.9441 17.6372C10.9932 17.4694 11.0198 17.3087 11.0201 17.1347C11.0206 16.8842 10.9789 16.6256 10.916 16.3834C10.7924 15.9072 10.5653 15.451 10.2324 15.0867C9.51668 14.3035 8.39794 13.7691 7.33128 14.0454Z" fill="#0E7490"/>
<path d="M31.0897 2.02848C31.1297 2.14328 31.1342 2.2229 31.1662 2.34311C31.183 2.40633 31.2034 2.46922 31.2236 2.53132C31.2354 2.56714 31.2434 2.61077 31.2577 2.6458C31.2619 2.65472 31.2623 2.6552 31.2646 2.65965C31.269 2.68832 31.2727 2.71714 31.2749 2.74596C31.279 2.79293 31.3297 2.80965 31.3489 2.76204C31.3577 2.74007 31.3658 2.71777 31.3741 2.69548C31.4179 2.65376 31.4354 2.57144 31.4497 2.52001C31.4714 2.44295 31.472 2.36206 31.4569 2.2834C31.429 2.13787 31.3884 1.99345 31.3238 1.8597C31.1974 1.59825 31.0135 1.37803 30.7557 1.23998C30.6996 1.21005 30.6896 1.33393 30.7133 1.36147C30.8881 1.56513 31.0079 1.79346 31.0897 2.02848Z" fill="#0E7490"/>
<path d="M28.2389 1.04566C28.4243 1.1697 28.602 1.30473 28.7723 1.44899C28.9452 1.59548 29.126 1.75486 29.2663 1.93304C29.2975 1.97253 29.3291 1.88639 29.3091 1.85757C29.1885 1.68401 29.0742 1.5157 28.9301 1.36062C28.7625 1.18021 28.5779 1.01812 28.3835 0.867171C28.3208 0.818606 28.2556 0.773386 28.1913 0.727051C28.1423 0.791856 28.097 0.859209 28.0604 0.931339C28.0322 0.915098 28.0058 0.903156 27.9778 0.887392C28.0647 0.940415 28.1544 0.98898 28.2389 1.04566Z" fill="#0E7490"/>
<path d="M19.2281 4.34165C19.2405 4.34706 19.2451 4.31649 19.2371 4.31012C19.0102 4.12653 18.7908 3.96699 18.5318 3.83196C18.3003 3.71127 18.0635 3.59997 17.8207 3.50411C17.6879 3.45157 17.5517 3.4073 17.4143 3.3667C17.4005 3.48708 17.397 3.6057 17.4065 3.72018C17.5186 3.74678 17.6302 3.77559 17.7418 3.80617C18.2495 3.94517 18.7453 4.13306 19.2281 4.34165Z" fill="#0E7490"/>
<path d="M18.0115 6.85463C18.8137 7.07739 19.6983 7.10192 20.508 6.91244C21.2906 6.72916 22.0678 6.3061 22.46 5.57556C22.84 4.86764 22.7915 4.06179 22.2533 3.45497C22.1436 3.33125 22.0557 3.48538 22.0929 3.59684C22.2984 4.20955 22.1353 4.94422 21.7667 5.46028C21.3634 6.0249 20.6634 6.32043 19.9983 6.43045C19.2087 6.56118 18.3858 6.50402 17.6152 6.29511C17.3096 6.21231 17.0106 6.09687 16.7275 5.95548C16.4467 5.81504 16.1826 5.57381 15.888 5.47413C15.8654 5.46649 15.859 5.51633 15.8662 5.52859C16.2702 6.21995 17.2698 6.64875 18.0115 6.85463Z" fill="#0E7490"/>
<path d="M23.4542 1.88142C23.7482 2.02027 24.0447 2.16596 24.3262 2.32869C24.3667 2.3521 24.3823 2.26421 24.3563 2.24144C24.2227 2.12409 24.0914 2.00228 23.946 1.89958C23.7997 1.79624 23.6494 1.69863 23.4943 1.60899C23.4153 1.56329 23.3325 1.52428 23.2516 1.48145C23.2242 1.57396 23.2026 1.66838 23.1902 1.76471C23.1774 1.75962 23.1655 1.75564 23.1529 1.7507C23.2537 1.79321 23.3551 1.83461 23.4542 1.88142Z" fill="#0E7490"/>
<path d="M14.4785 9.65069C13.4934 9.58239 12.5622 9.13098 11.8659 8.43611C11.7758 8.34615 11.728 8.5232 11.7755 8.58865C12.3888 9.43494 13.3217 10.0145 14.3564 10.1822C14.9801 10.2833 15.6235 10.2316 16.2251 10.04C16.5268 9.94399 16.8217 9.8182 17.0961 9.65977C17.3515 9.51233 17.7675 9.29116 17.6933 8.94181C17.6709 8.83625 17.59 8.71778 17.4672 8.72972C17.2098 8.75488 17.0145 8.91029 16.802 9.04579C16.5838 9.1848 16.3547 9.30708 16.1133 9.40039C15.5982 9.60006 15.0295 9.68891 14.4785 9.65069Z" fill="#0E7490"/>
<path d="M44.9578 7.49664C44.3846 4.14792 41.8768 4.9361 41.8768 4.9361C41.8768 4.9361 40.4826 2.28496 38.2778 2.85818C36.5745 0.923566 34.2101 1.49153 33.7802 2.49721C31.9157 0.995219 29.5529 2.42827 29.2663 3.21644C26.4887 2.0345 24.4657 3.82517 24.1075 5.09708C20.9548 4.57768 19.044 7.29203 18.8888 8.15616C15.4377 8.15616 14.8645 11.0302 14.8645 11.0302C14.8645 11.0302 13.2881 11.0264 12.1417 12.961C10.9952 14.8956 11.5685 16.0295 11.5685 16.0295C11.5685 16.0295 8.84567 16.6868 9.06063 21.3442C6.98271 23.2788 7.84254 26.2164 7.84254 26.2164C7.84254 26.2164 5.26305 29.3124 8.34411 32.4933C7.77089 35.8893 9.92046 37.2763 11.5685 37.6933C11.9267 40.1883 15.2944 40.4032 16.584 39.7584C17.8737 41.2631 20.2382 40.8331 21.3845 40.2599C23.1042 41.5497 25.0862 40.8331 25.8865 39.7584C27.26 41.0481 29.4811 39.4001 30.1259 38.2536C32.3472 39.83 34.4251 36.534 34.4251 36.534C34.4251 36.534 37.4345 36.6056 38.6524 33.1663C40.6308 34.3085 42.6648 31.8404 42.8081 30.9271C44.5278 31.0886 45.2443 27.4939 45.2443 27.4939C47.7521 27.0044 47.6805 23.1353 47.6805 23.1353C50.1902 21.6863 49.9017 18.49 49.3285 17.6959C50.7615 16.4718 49.6867 13.3909 48.1104 12.961C48.996 10.0471 46.9652 6.87374 44.9578 7.49664Z" fill="#0E7490"/>
<path opacity="0.5" d="M44.9578 7.49664C44.3846 4.14792 41.8768 4.9361 41.8768 4.9361C41.8768 4.9361 40.4826 2.28496 38.2778 2.85818C36.5745 0.923566 34.2101 1.49153 33.7802 2.49721C31.9157 0.995219 29.5529 2.42827 29.2663 3.21644C26.4887 2.0345 24.4657 3.82517 24.1075 5.09708C20.9548 4.57768 19.044 7.29203 18.8888 8.15616C15.4377 8.15616 14.8645 11.0302 14.8645 11.0302C14.8645 11.0302 13.2881 11.0264 12.1417 12.961C10.9952 14.8956 11.5685 16.0295 11.5685 16.0295C11.5685 16.0295 8.84567 16.6868 9.06063 21.3442C6.98271 23.2788 7.84254 26.2164 7.84254 26.2164C7.84254 26.2164 5.26305 29.3124 8.34411 32.4933C7.77089 35.8893 9.92046 37.2763 11.5685 37.6933C11.9267 40.1883 15.2944 40.4032 16.584 39.7584C17.8737 41.2631 20.2382 40.8331 21.3845 40.2599C23.1042 41.5497 25.0862 40.8331 25.8865 39.7584C27.26 41.0481 29.4811 39.4001 30.1259 38.2536C32.3472 39.83 34.4251 36.534 34.4251 36.534C34.4251 36.534 37.4345 36.6056 38.6524 33.1663C40.6308 34.3085 42.6648 31.8404 42.8081 30.9271C44.5278 31.0886 45.2443 27.4939 45.2443 27.4939C47.7521 27.0044 47.6805 23.1353 47.6805 23.1353C50.1902 21.6863 49.9017 18.49 49.3285 17.6959C50.7615 16.4718 49.6867 13.3909 48.1104 12.961C48.996 10.0471 46.9652 6.87374 44.9578 7.49664Z" fill="white"/>
<path opacity="0.2" d="M35.4723 2.33706C35.3179 2.36556 35.1483 2.43053 35.091 2.57686C35.0371 2.71427 35.104 2.86649 35.1695 2.99865C35.3978 3.45961 35.4917 4.00513 36.053 4.13442C36.2895 4.18888 36.5367 4.18792 36.7714 4.24938C37.2945 4.38632 37.6851 4.80795 38.0663 5.19137C38.2389 5.36493 38.4456 5.54645 38.6901 5.53467C38.8145 5.09058 38.5944 4.6293 38.3688 4.22693C37.748 3.12062 36.8808 2.0772 35.4723 2.33706ZM31.3313 3.38955C31.8349 3.52808 32.3707 3.55865 32.8495 3.76756C33.2302 3.93363 33.5565 4.20496 33.9324 4.3817C33.984 4.4059 34.0507 4.42644 34.0931 4.38839C34.131 4.35447 34.1251 4.29444 34.1147 4.24461C33.9955 3.67967 33.6571 3.16409 33.1864 2.83003C32.7965 2.55329 32.0214 2.22274 31.5243 2.32369C30.913 2.44804 30.5883 3.18511 31.3313 3.38955ZM29.4645 4.20289C28.916 3.75084 28.1534 3.46296 27.4375 3.46423C27.0213 3.46487 25.8234 3.76183 25.8206 4.2911C25.8193 4.5129 26.0839 4.62803 26.3034 4.66083C27.0286 4.76958 27.7751 4.61561 28.4989 4.73391C28.944 4.80668 29.3655 4.98008 29.7794 5.15857C29.8248 5.17816 29.8761 5.19806 29.9223 5.17991C29.9955 5.15125 30.0041 5.05093 29.9899 4.97355C29.9321 4.6613 29.7095 4.40479 29.4645 4.20289ZM25.1265 9.33336C25.7149 9.32285 26.3049 9.4238 26.8562 9.62952C26.8958 9.29849 26.5244 9.08496 26.2134 8.96506C25.6887 8.76268 25.1642 8.56015 24.6397 8.35777C24.3396 8.24201 24.028 8.11845 23.8114 7.88072C23.5949 7.643 23.5068 7.25448 23.7021 6.99876C23.813 6.85339 24.0059 6.75498 24.036 6.57442C24.0707 6.36695 23.868 6.20167 23.6802 6.10645C23.1054 5.81475 22.42 5.71173 21.8055 5.9063C20.9428 6.1797 20.2011 7.1736 20.7046 8.06431C20.8866 8.38611 21.1753 8.63116 21.4214 8.90694C21.7001 9.21903 21.9278 9.5765 22.0929 9.96087C22.3661 10.5965 22.6774 11.5336 23.4151 11.7757C23.6382 11.849 23.91 11.8146 24.0659 11.6391C24.4581 11.1982 23.817 10.5046 23.9813 9.93794C24.1106 9.49322 24.6633 9.34164 25.1265 9.33336ZM16.9385 9.37476C16.715 9.53382 16.4975 9.70133 16.2864 9.87664C16.1599 9.98157 16.0322 10.094 15.9626 10.2429C15.8931 10.3917 15.8966 10.587 16.0139 10.7021C16.1407 10.8264 16.3421 10.8162 16.5195 10.8094C17.5021 10.7709 18.4948 11.0989 19.261 11.7152C19.4513 11.8683 19.633 12.0413 19.8597 12.1319C19.8962 12.1464 19.9382 12.1585 19.9734 12.1415C20.0215 12.1181 20.0314 12.0549 20.0338 12.0015C20.0698 11.1551 19.7306 10.3096 19.1556 9.69305C18.4382 8.92351 17.8291 8.74071 16.9385 9.37476ZM15.7517 15.362C15.5122 15.3498 15.2944 15.4857 15.0742 15.5811C14.421 15.8639 13.6018 15.7505 13.1634 15.1612C12.9657 14.8956 12.8475 14.5793 12.7614 14.2595C12.7362 14.1664 12.7064 14.0624 12.6225 14.0146C12.248 13.8014 12.2759 14.8773 12.2891 15.0163C12.3631 15.7845 12.6528 16.4594 13.277 16.9519C13.7831 17.3514 14.4992 17.3715 15.1259 17.2199C15.4335 17.1455 15.7392 17.0304 15.9789 16.8236C16.094 16.7241 16.1921 16.6005 16.2596 16.4639C16.3325 16.3164 16.3696 16.1539 16.3545 15.9903C16.3255 15.6752 16.0677 15.3783 15.7517 15.362ZM42.3618 6.56487C42.8595 6.74145 43.2991 7.07774 43.5999 7.51179C43.6913 7.64363 43.8131 7.80413 43.9701 7.77102C44.0948 7.74458 44.159 7.60558 44.183 7.48043C44.2776 6.98793 44.0544 6.35819 43.7408 5.98034C43.4327 5.60887 41.7798 5.12657 41.7844 5.98942C41.786 6.3074 42.1105 6.4757 42.3618 6.56487ZM47.1117 9.92457C47.0122 9.73986 46.7475 9.36456 46.483 9.44227C46.2264 9.51774 46.2778 9.82855 46.2401 10.0368C46.2069 10.2196 46.0164 10.3397 45.8312 10.3543C45.5025 10.3803 45.108 10.1938 44.7761 10.1496C44.6048 10.1266 44.4269 10.1091 44.2623 10.161C44.0975 10.2131 43.9485 10.3523 43.9378 10.5247C43.9247 10.7355 44.108 10.9003 44.2747 11.0301C45.1616 11.7203 46.0837 12.4402 46.5792 13.4489C47.0142 14.3347 47.3996 13.1892 47.5 12.7532C47.705 11.8625 47.5451 10.7287 47.1117 9.92457ZM42.6326 12.4673C42.4761 12.6561 42.4904 12.9329 42.3858 13.1548C42.181 13.5895 41.6112 13.6844 41.1308 13.6849C40.3517 13.6857 39.5724 13.5885 38.8174 13.3965C38.6933 13.5731 38.9 13.7927 39.086 13.9024C40.3365 14.6402 41.7753 15.0563 43.2267 15.1001C43.5131 15.1087 43.8055 15.1022 44.077 15.0105C44.3483 14.9187 44.5992 14.7296 44.7043 14.463C44.9863 13.7465 43.3671 11.5816 42.6326 12.4673ZM37.1337 9.48C36.6328 9.05869 35.2252 8.09122 34.5454 8.56779C34.0932 8.88497 34.4015 9.20359 34.8395 9.45278C35.2139 9.66566 35.683 9.8276 35.8533 9.89447C36.2608 10.0543 36.6797 10.1999 37.0531 10.4194C37.2002 10.5061 38.0451 11.1648 37.8803 10.5756C37.7593 10.1435 37.477 9.76868 37.1337 9.48ZM28.8203 13.7834C28.579 13.7196 28.3375 13.921 28.2435 14.1522C28.1521 14.377 28.1552 14.627 28.117 14.867C28.1158 14.8737 28.1147 14.8804 28.1136 14.8872C27.9894 15.616 27.3992 16.2434 26.6791 16.4115C26.5272 16.447 26.3403 16.4895 26.2981 16.6397C26.2543 16.7956 26.4158 16.9403 26.5748 16.9704C27.1955 17.0877 27.901 17.1226 28.48 16.815C29.4148 16.3185 29.7885 14.974 29.1758 14.0922C29.0843 13.9603 28.9754 13.8245 28.8203 13.7834ZM22.9298 21.9114C22.7152 21.8391 22.4937 21.7464 22.3574 21.5655C22.0736 21.189 22.316 20.1229 21.6659 20.0858C21.1781 20.058 20.5783 20.8014 20.418 21.1904C20.1951 21.7314 20.2989 22.4163 20.7356 22.8057C20.8587 22.9155 21.0027 22.9995 21.1514 23.0705C21.8754 23.4161 22.7717 23.4442 23.4626 23.0368C23.5654 22.9761 23.6667 22.9024 23.7207 22.7962C23.8234 22.5943 23.7172 22.3381 23.5436 22.1927C23.3697 22.0472 23.1444 21.9837 22.9298 21.9114ZM11.2834 32.0784C11.129 31.958 10.946 31.8795 10.7868 31.7655C10.4067 31.4935 10.1895 31.0257 10.1755 30.5585C10.1615 30.0915 10.3375 29.6301 10.6174 29.2559C10.8647 28.9253 11.213 28.5922 11.1607 28.1829C11.1124 27.805 10.735 27.5616 10.3749 27.4372C9.25996 27.0523 8.34504 27.5015 8.05732 28.6892C7.81641 29.6841 8.09537 30.79 8.77957 31.5515C9.46362 32.3129 10.5335 32.7084 11.5484 32.5748C11.5661 32.3799 11.4377 32.1987 11.2834 32.0784ZM11.1304 21.8093C11.0202 22.657 11.6358 23.5278 11.349 24.3332C11.3242 24.403 11.2994 24.4961 11.3603 24.5383C11.3839 24.5545 11.4142 24.5569 11.4428 24.5573C11.7863 24.5601 12.0928 24.3313 12.3031 24.0598C12.8585 23.3427 12.8687 22.2535 12.3268 21.526C11.9386 21.005 11.2173 21.1402 11.1304 21.8093ZM33.8768 18.5006C33.3817 18.9852 32.7624 19.0048 32.1101 18.9614C31.5954 18.9271 31.0668 18.8115 30.6071 18.8053C30.3738 18.8021 30.0678 18.8579 30.0376 19.0894C30.0159 19.2547 30.1613 19.3892 30.2925 19.4919C31.458 20.4036 33.0243 21.0328 34.0792 19.53C34.3085 19.2032 34.5999 17.793 33.8768 18.5006Z" fill="white"/>
<path opacity="0.3" d="M14.4822 34.4008C14.9423 34.1121 15.2076 33.5818 15.2993 33.0463C15.391 32.5108 15.3313 31.9622 15.2713 31.4223C15.049 31.4557 14.5874 31.5354 14.365 31.5688C14.1889 32.7436 13.0756 33.6321 11.8992 33.7981C10.723 33.9642 9.52829 33.5205 8.55063 32.8455C8.47723 32.7949 8.39921 32.7428 8.31864 32.6976C7.86707 35.9412 9.9547 37.2849 11.5683 37.6932C11.8431 39.6074 13.8873 40.1766 15.4074 40.0481C15.3082 39.98 15.2215 39.89 15.1638 39.7849C15.035 39.5498 15.017 39.2695 15.0363 39.0022C15.1454 37.4914 16.4948 36.1709 18.0075 36.0948C17.4903 35.3753 17.2018 34.4938 17.1937 33.6077C16.3872 34.1612 15.4094 34.7123 14.4822 34.4008ZM21.0938 26.8194C21.3377 26.5203 22.0023 25.6554 21.921 25.2333C21.8536 24.8835 20.6803 24.9032 20.3013 24.7378C20.4605 25.2992 20.2516 25.947 19.7942 26.3095C19.3369 26.6719 18.6582 26.7275 18.1481 26.4441C18.1277 27.0779 18.0084 27.7085 17.7955 28.3059C17.6105 28.8253 17.3524 29.3858 17.5441 29.9028C17.6191 30.1052 17.7581 30.2778 17.9123 30.4289C18.8628 31.3602 20.3117 31.5011 21.6393 31.5905C21.04 31.4935 20.4155 31.3386 19.9771 30.9184C19.5851 30.5426 19.3934 29.9958 19.345 29.4551C19.2966 28.9143 19.3778 28.3712 19.4588 27.8343C20.1059 27.727 20.6793 27.3273 21.0938 26.8194ZM29.8132 11.7515C30.0718 12.0297 30.5218 12.0786 30.7519 12.3809C30.4758 11.6163 30.3807 10.6915 30.8801 10.0498C31.1762 9.66913 31.644 9.4494 32.12 9.37122C32.5961 9.29304 33.0836 9.34399 33.5595 9.42281C33.3516 9.25068 33.2054 8.99337 33.2046 8.72348C33.2005 7.08901 35.5851 7.99899 36.3954 8.16746C35.3636 7.40555 33.9573 7.11369 32.6983 7.29187C31.616 8.59021 29.8753 9.30896 28.1925 9.1526C28.7735 9.73266 29.2316 10.4353 29.5277 11.2009C29.6031 11.395 29.6715 11.5991 29.8132 11.7515ZM26.223 27.9505C26.3142 28.8185 26.4433 29.6437 26.3685 30.5247C26.3314 30.9615 26.2609 31.3995 26.1007 31.8076C25.7967 32.5818 25.1947 33.1945 24.6081 33.7841C24.3583 34.0352 24.0876 34.298 23.7406 34.3701C23.7099 35.0118 23.8198 35.6853 24.1995 36.2036C24.7667 36.9778 25.7854 37.2408 26.7217 37.4518C26.2561 37.3398 25.8045 37.1168 25.4943 36.752C25.1842 36.3872 25.0356 35.8675 25.1847 35.4124C25.3934 34.7756 26.0817 34.4371 26.4714 33.8918C26.7599 33.4876 26.8741 32.9633 26.7795 32.4759C27.2296 32.4632 27.6809 32.488 28.1269 32.5504C28.234 31.5694 28.0877 30.5642 27.7221 29.6487C27.5533 29.2254 26.8906 27.5367 26.223 27.9505ZM17.2988 18.7316C17.4142 19.0975 17.6809 19.3922 17.9476 19.6678C18.4479 20.1848 18.9323 20.4272 19.3397 20.4706C19.7472 20.5141 19.8636 20.0315 19.8728 19.6218C19.8736 19.5853 19.1081 19.0866 19.0342 19.0193C18.7791 18.7868 18.5508 18.525 18.3535 18.2418C17.9307 17.6346 17.8075 16.9875 17.5605 16.3264C17.2179 17.1215 16.6306 17.7689 15.834 18.1283C14.9986 18.5051 14.022 18.5352 13.1485 18.2577C14.2683 19.2241 15.9901 19.4207 17.2988 18.7316ZM30.5856 35.6799C30.5237 35.4004 30.5157 35.0882 30.3275 34.8728C30.4611 35.4465 30.5954 36.0253 30.606 36.6142C30.6156 37.1489 30.4006 37.7895 30.3186 38.3775C31.7416 39.2147 33.0809 38.1337 33.8234 37.3083C33.2104 37.3188 32.6013 37.272 32.0305 37.0594C31.3756 36.8153 30.7431 36.3891 30.5856 35.6799ZM46.0965 24.4544C45.774 23.9821 45.2449 23.6428 44.8077 23.2729C45.3911 23.7663 45.4704 25.0878 45.5522 25.7817C45.5678 25.9132 45.5849 26.7168 45.6029 27.3929C46.1721 27.188 46.5859 26.7921 46.8859 26.3195C46.8364 26.1312 46.7776 25.9452 46.709 25.7629C46.5425 25.321 46.3638 24.8459 46.0965 24.4544ZM48.9915 13.5183C48.7724 13.2935 48.5274 13.1225 48.2655 13.0199C48.189 13.4271 48.0647 13.8242 47.8456 14.1734C47.5446 14.6528 47.042 15.0324 46.4772 15.0687C46.2469 15.0835 46.0032 15.0445 45.7949 15.1437C45.6396 15.2176 45.5287 15.3577 45.4097 15.4819C45.0626 15.8441 44.6042 16.0983 44.1131 16.2008C44.3268 17.1984 44.5403 18.1959 44.754 19.1935C45.6231 19.153 46.5027 19.3763 47.2472 19.8263C46.8318 19.45 46.3931 19.0343 46.2858 18.4841C46.1433 17.7533 46.6313 16.9922 46.4291 16.2755C47.1404 16.0549 47.8634 15.78 48.3909 15.2544C48.7822 14.8646 49.0638 14.1391 48.9915 13.5183ZM39.5712 28.622C39.3987 28.5035 39.2457 28.3475 39.1651 28.1542C39.079 27.9473 39.0814 27.716 39.0852 27.4919C39.0924 27.0686 39.0994 26.645 39.1067 26.2215C39.1156 25.692 39.0811 25.073 38.6457 24.7717C38.9392 24.4372 39.0597 23.9881 39.1529 23.553C39.246 23.1178 39.3252 22.6673 39.5586 22.2885C39.792 21.9096 40.2259 21.6142 40.6643 21.6908C39.9613 21.59 39.4119 20.8615 39.5083 20.1581C39.5615 19.7699 39.7763 19.4826 39.9786 19.1626C40.0686 19.0204 40.2439 18.3776 40.3028 18.3292C39.703 18.8239 39.0206 19.2185 38.2926 19.4914C38.5693 21.0502 38.4101 22.6841 37.8377 24.1603C37.7929 24.2757 37.7453 24.3918 37.7281 24.5145C37.7069 24.666 37.733 24.8193 37.7529 24.9709C37.8475 25.6892 37.8025 26.4254 37.6208 27.1267C37.5509 27.3967 37.4601 27.675 37.513 27.9489C37.601 28.4051 38.0485 28.6912 38.4682 28.8904C38.8855 29.0884 39.3269 29.2576 39.788 29.2812C40.2493 29.3047 40.7369 29.1648 41.049 28.8242C40.5609 28.9911 39.9961 28.9138 39.5712 28.622ZM29.129 27.109C28.7991 26.5033 28.987 25.7634 29.0244 25.0747C29.0919 23.8327 28.6084 22.5707 27.728 21.6921C27.9589 21.252 28.1413 20.8595 28.2759 20.3847C28.3921 19.9737 28.4687 19.5357 28.724 19.1932C28.8241 19.0589 28.9481 18.9448 29.062 18.822C29.1856 18.6887 29.2975 18.5449 29.4201 18.411C30.0705 17.7002 31.6552 16.8989 32.6328 17.3719C31.8502 16.9887 30.9737 16.7962 30.1025 16.8135C29.9554 16.8164 29.8065 16.8256 29.6666 16.8704C29.4488 16.9401 29.2677 17.0904 29.0908 17.2353C28.4553 17.7565 27.6723 18.2813 26.8748 18.0832C26.9029 19.304 26.7239 20.5292 26.3475 21.691C26.3032 21.8277 26.2555 21.971 26.2816 22.1124C26.3142 22.29 26.4543 22.424 26.5733 22.5599C27.3374 23.4316 27.3949 24.6977 27.4094 25.8568C27.4124 26.1044 27.4159 26.3562 27.4885 26.5929C27.711 27.3185 28.508 27.7037 29.2539 27.8445C29.8158 27.9507 30.3947 27.9669 30.9617 27.8926C30.2611 27.9789 29.4666 27.729 29.129 27.109ZM34.7246 30.1221C34.2928 30.2521 33.8598 30.1407 33.4414 30.3291C33.3363 30.3763 33.2629 30.4719 33.1828 30.5547C32.7077 31.0453 31.9591 31.1182 31.2776 31.1617C31.2899 31.5618 31.3022 31.9619 31.3143 32.3621C31.3159 32.4148 33.122 31.7455 33.2857 31.6374C33.6057 31.4264 33.7538 31.1836 34.1148 31.1051C34.5012 31.0211 35.0267 31.0965 35.4067 31.1854C35.9201 31.3056 36.4183 31.5944 36.6692 32.0581C36.7906 32.2825 36.8485 32.5347 36.9051 32.7834C37.1348 31.5709 36.7116 30.4201 36.1551 29.3594C35.7349 29.7025 35.2446 29.9654 34.7246 30.1221Z" fill="#0E7490"/>
<path opacity="0.3" d="M32.0048 5.0625C32.8178 5.10995 33.8859 5.62473 34.1259 6.40288C35.8836 6.41211 37.6128 7.32448 38.6126 8.77027C38.6621 8.84192 38.7147 8.91867 38.7954 8.95163C38.8639 8.97949 38.9409 8.9709 39.0145 8.96373C39.9165 8.87568 40.8451 9.08888 41.6183 9.56163C40.6582 9.36912 39.661 9.36371 38.6987 9.54555C38.5454 9.57453 38.3887 9.60828 38.2349 9.58201C37.9649 9.53599 37.7628 9.31881 37.5681 9.12598C36.6006 8.16823 35.304 7.55298 33.9528 7.39598C33.4019 7.33197 32.7828 7.52909 32.75 6.87101C32.7376 6.62197 33.0021 5.94749 32.0048 5.0625Z" fill="#0E7490"/>
<path d="M39.7783 6.30355C39.7856 6.32632 39.8073 6.31916 39.8047 6.29623C39.7505 5.80915 39.7044 5.33163 39.6028 4.85729C39.8366 5.04581 40.066 5.23991 40.2832 5.44516C40.5974 5.74228 40.9088 6.09226 41.0867 6.48969C41.1333 6.59398 41.2223 6.47806 41.1932 6.40148C41.1085 6.17888 41.0216 5.95723 40.8998 5.75199C40.7684 5.5305 40.617 5.3208 40.4544 5.12129C40.3136 4.94852 40.1592 4.79009 39.999 4.63517C39.843 4.48422 39.6557 4.31798 39.5221 4.18789C39.485 4.15175 39.4358 4.12245 39.3841 4.09952C39.2204 3.64063 39.0096 3.20116 38.7516 2.78622C38.5978 2.79577 38.4408 2.81567 38.2779 2.85803C38.2773 2.85723 38.2766 2.85675 38.276 2.85612C38.3093 2.9093 38.3442 2.96153 38.376 3.0155C38.9731 4.02755 39.4263 5.18689 39.7783 6.30355ZM11.9219 17.6211C12.6902 18.2372 13.7058 18.5679 14.6801 18.651C15.6428 18.733 16.5722 18.4278 17.1916 17.6655C17.3277 17.4982 17.4489 17.2888 17.5471 17.0613C17.6944 17.6942 17.9444 18.2904 18.3665 18.7935C18.6772 19.1639 19.1857 19.6333 19.7114 19.6766C19.2967 20.0939 19.0002 20.706 19.1612 21.2795C19.1877 21.3735 19.3792 21.5306 19.4579 21.3982C19.6329 21.1037 19.7182 20.7722 19.9139 20.4867C20.0636 20.2686 20.2343 20.0708 20.4456 19.9102C20.675 19.7357 20.928 19.6151 21.2047 19.5374C21.3289 19.5026 21.4546 19.4766 21.5831 19.4643C21.6498 19.458 21.7146 19.447 21.7807 19.4357C21.8598 19.4221 21.9112 19.4 21.988 19.3752C22.0678 19.3492 22.0565 19.2075 21.9907 19.1702C21.8055 19.0655 21.6265 19.0058 21.4113 19.0016C21.2364 18.9983 21.0586 19.0107 20.8869 19.0457C20.5513 19.1144 20.2284 19.257 19.9542 19.4626C19.9481 19.4556 19.943 19.4452 19.9368 19.4411C19.5104 19.1572 19.069 18.9032 18.7633 18.4795C18.3934 17.967 18.1961 17.3258 18.1151 16.7044C18.0356 16.0956 18.0684 15.4028 18.4152 14.873C18.706 14.4288 19.1544 14.0989 19.4203 13.6433C19.4531 13.5869 19.4435 13.4244 19.3437 13.4419C18.6289 13.5675 17.9243 14.1245 17.5889 14.7598C17.5852 14.7668 17.5831 14.7741 17.5795 14.7813C17.5707 14.7737 17.5613 14.766 17.5532 14.7582C17.4836 14.692 17.419 14.6203 17.3591 14.5453C17.2271 14.3802 17.1249 14.1966 17.0486 13.9997C16.9535 13.7538 16.8975 13.4769 16.8879 13.2137C16.8798 12.9873 16.8808 12.734 16.9518 12.5188C16.9793 12.4351 16.8782 12.2491 16.8171 12.3803C16.7574 12.5085 16.672 12.6368 16.6287 12.7706C16.5891 12.893 16.5641 13.0209 16.5453 13.1479C16.4972 13.4717 16.5286 13.7844 16.6249 14.0977C16.7642 14.5515 17.1096 14.9084 17.1999 15.3837C17.265 15.7265 17.2091 16.0919 17.0438 16.3994C16.9642 16.5476 16.8773 16.6898 16.7943 16.836C16.6962 17.0089 16.5814 17.1732 16.4477 17.3203C15.8861 17.9372 15.1004 18.0499 14.3084 17.9116C13.5696 17.7824 12.8596 17.5184 12.2673 17.0462C11.9387 16.7842 11.7106 16.3788 11.5361 15.9494C11.5544 16.0002 11.5683 16.0293 11.5683 16.0293C11.5683 16.0293 11.3549 16.0811 11.0526 16.2572C11.222 16.8076 11.5465 17.3202 11.9219 17.6211ZM19.5787 8.88654C20.0902 9.51453 20.4436 10.2309 20.7745 10.9648C21.0648 11.609 21.4151 12.2942 22.0154 12.7043C21.8749 12.922 21.7993 13.229 21.7519 13.4425C21.6687 13.8161 21.646 14.1993 21.7093 14.5778C21.7663 14.9181 21.8823 15.2638 22.0531 15.5641C22.1584 15.7491 22.294 15.9234 22.4337 16.0838C22.5539 16.222 22.6969 16.389 22.8762 16.4446C22.9513 16.4678 22.9505 16.3377 22.9303 16.2992C22.7844 16.022 22.5779 15.7954 22.4531 15.5031C22.322 15.1967 22.2251 14.8835 22.2052 14.549C22.1865 14.2345 22.206 13.92 22.2878 13.615C22.3284 13.4637 22.3806 13.3158 22.445 13.1728C22.4767 13.1022 22.509 13.0436 22.5359 12.9857C22.7047 13.0527 22.8808 13.0995 23.0612 13.1166C23.4997 13.1581 23.7887 12.9607 24.1073 12.6731C24.1223 12.6596 24.1266 12.6016 24.096 12.6182C23.7393 12.8117 23.2051 12.7314 22.8448 12.5727C22.491 12.4168 22.2053 12.076 21.9991 11.7579C21.5598 11.0794 21.3138 10.2987 20.8946 9.60911C20.4928 8.94816 19.9185 8.37287 19.2969 7.91891C19.2119 7.85681 19.1254 7.79615 19.038 7.7366C18.9619 7.89567 18.9125 8.03547 18.8913 8.14629C19.1413 8.37239 19.3665 8.62588 19.5787 8.88654ZM14.7234 13.5814C14.7662 13.688 14.8629 13.6242 14.8436 13.5279C14.7774 13.1975 14.7779 12.8373 14.7556 12.5C14.7344 12.1768 14.7441 11.8521 14.7793 11.5302C14.7976 11.3624 14.8251 11.1955 14.8592 11.0302C14.8419 11.0304 14.6791 11.0348 14.4269 11.0982C14.4139 11.181 14.397 11.263 14.3879 11.3463C14.3519 11.6756 14.3492 12.008 14.3779 12.338C14.4167 12.7854 14.5575 13.168 14.7234 13.5814ZM25.0399 5.48273C25.6698 5.80772 26.3847 6.15037 26.792 6.76117C26.8352 6.82598 26.8753 6.7212 26.8586 6.68044C26.7108 6.31613 26.505 6.03907 26.2153 5.77173C25.8758 5.45821 25.4978 5.16874 25.0893 4.95267C24.8393 4.82035 24.5788 4.70984 24.3135 4.6116C24.221 4.77688 24.1513 4.94104 24.1073 5.09708C24.1065 5.09693 24.1056 5.09693 24.1046 5.09677C24.1054 5.09708 24.1064 5.09708 24.1071 5.0974C24.4289 5.19692 24.7407 5.32828 25.0399 5.48273ZM34.4421 3.25944C34.5907 3.48522 34.7294 3.72502 34.8451 3.96928C34.9053 4.09634 34.9751 4.22022 35.0161 4.35493C35.062 4.50492 35.0934 4.65794 35.1445 4.80618C35.1636 4.86143 35.2086 4.82194 35.2109 4.78102C35.2185 4.6452 35.2012 4.5167 35.1747 4.38359C35.1438 4.22722 35.1249 4.06656 35.0817 3.91339C34.9835 3.56547 34.8364 3.25912 34.6354 2.96041C34.4689 2.71313 34.2749 2.48448 34.0616 2.27637C34.035 2.25042 34.0044 2.2286 33.9772 2.20312C33.8942 2.29548 33.8245 2.39308 33.7801 2.49722C33.7748 2.49308 33.7694 2.49021 33.7641 2.48607C33.8226 2.53719 33.8831 2.58607 33.9383 2.64068C34.1283 2.82746 34.2958 3.03716 34.4421 3.25944ZM30.0258 3.77374C30.4438 4.17038 30.7619 4.65555 31.0006 5.17797C31.0208 5.22256 31.0517 5.16205 31.0506 5.13896C31.0133 4.44346 30.6653 3.83266 30.1689 3.35593C29.9688 3.16359 29.7406 3.00293 29.5026 2.85978C29.3895 2.98461 29.3061 3.10674 29.2661 3.21629C29.2645 3.21565 29.2629 3.21518 29.2615 3.21454C29.2623 3.21502 29.2633 3.21533 29.264 3.21581C29.5382 3.37058 29.7973 3.55688 30.0258 3.77374ZM25.9725 7.90968C25.6755 7.87003 25.3856 7.8963 25.088 7.91175C25.027 7.91493 25.03 8.04407 25.0894 8.05044C25.5978 8.10537 26.1376 8.2423 26.6193 8.41411C27.1492 8.60311 27.6603 8.88144 28.0805 9.25802C28.4507 9.58969 28.7528 10.0196 28.9639 10.4689C29.0649 10.6834 29.1398 10.9038 29.198 11.1331C29.2269 11.2476 29.2642 11.3558 29.216 11.4726C29.1652 11.5958 29.0464 11.652 28.9263 11.6794C28.7381 11.7224 28.5539 11.7616 28.3724 11.83C27.9821 11.9773 27.4719 12.2289 27.307 12.6365C27.2979 12.659 27.2974 12.733 27.3384 12.729C27.5415 12.7096 27.7245 12.5856 27.9058 12.4997C28.0834 12.4158 28.2662 12.3494 28.4549 12.2954C28.8509 12.1821 29.2574 12.1411 29.6678 12.1735C30.0158 12.2009 30.3626 12.288 30.6817 12.4305C30.8686 12.5141 31.0428 12.6201 31.2307 12.7031C31.4329 12.7925 31.6421 12.8652 31.8313 12.982C31.856 12.9973 31.8669 12.9438 31.8585 12.9295C31.7356 12.7231 31.6115 12.4774 31.4474 12.3039C31.2799 12.1268 31.0571 12.0222 30.8371 11.9252C30.6157 11.8278 30.3484 11.7985 30.1395 11.6848C29.9705 11.5931 29.8987 11.4034 29.8572 11.2262C29.7948 10.9598 29.7231 10.7121 29.6121 10.4605C29.443 10.0766 29.2107 9.73586 28.9343 9.42966C29.3473 9.44113 29.7642 9.37011 30.1592 9.2612C30.4546 9.17968 30.7681 9.08207 31.0754 8.96106C31.22 8.9601 31.3649 8.93224 31.5098 8.92985C31.6504 8.92762 31.7905 8.93749 31.9301 8.95198C32.2416 8.98431 32.5486 9.06026 32.8358 9.1862C33.3355 9.40514 33.7821 9.77328 34.1837 10.1368C34.191 10.1433 34.196 10.1245 34.1942 10.1201C34.0649 9.79318 33.8816 9.49654 33.6116 9.26725C33.3704 9.06249 33.1006 8.89418 32.8137 8.76123C32.5502 8.6391 32.2672 8.54547 31.9794 8.49134C32.1985 8.34039 32.3983 8.16826 32.5599 7.96366C32.6172 7.89121 32.6589 7.76781 32.7301 7.71478C32.8045 7.65937 32.9401 7.66813 33.0272 7.66781C33.5094 7.6667 33.9936 7.65316 34.4698 7.74329C35.1281 7.8678 35.7615 8.09263 36.3495 8.41395C36.8587 8.69212 37.3359 9.04975 37.7485 9.45753C38.2311 9.93457 38.614 10.4998 39.0912 10.9783C39.144 11.0312 39.1693 10.9149 39.1624 10.8834C39.0844 10.518 38.9237 10.1747 38.7112 9.85544C38.8444 9.83155 38.9745 9.78792 39.1065 9.75401C39.3113 9.7013 39.5183 9.65943 39.7282 9.63316C40.1038 9.58603 40.4853 9.57918 40.8612 9.62758C41.4187 9.6994 41.9847 9.89636 42.454 10.2011C42.7242 10.3766 42.9531 10.5992 43.1866 10.8186C43.2256 10.8552 43.2371 10.77 43.228 10.7474C43.0832 10.3871 42.8387 10.0841 42.5431 9.83554C42.7532 9.71404 42.9659 9.59287 43.1906 9.50832C43.4931 9.39447 43.8214 9.344 44.1439 9.34655C44.4574 9.3491 44.7607 9.4104 45.0604 9.49925C45.2038 9.54176 45.3446 9.59399 45.4836 9.64876C45.5537 9.67631 45.6342 9.73044 45.7103 9.73793C45.7774 9.74446 45.7965 9.72838 45.8743 9.75083C45.907 9.76022 45.9084 9.69 45.895 9.67487C45.7844 9.55004 45.7237 9.451 45.5833 9.35578C45.4258 9.2491 45.2591 9.16041 45.0838 9.08637C44.7324 8.93797 44.3376 8.86281 43.9566 8.85772C43.6104 8.8531 43.2683 8.91631 42.9431 9.03271C42.7786 9.09162 42.6145 9.16184 42.4661 9.25499C42.3288 9.34129 42.2304 9.43333 42.1448 9.54924C41.8417 9.36852 41.5098 9.23556 41.1786 9.15627C40.6897 9.03924 40.1791 9.0214 39.6807 9.0808C39.4473 9.10866 39.2143 9.15165 38.9862 9.20738C38.7922 9.25467 38.5486 9.29989 38.3825 9.42536C37.8706 8.83638 37.1974 8.35265 36.5788 8.00299C35.942 7.64329 35.2403 7.38948 34.5232 7.24777C34.1635 7.17676 33.7963 7.13265 33.4298 7.12533C33.3156 7.1231 33.0403 7.17484 32.982 7.03393C32.9389 6.92947 32.9659 6.76165 32.9613 6.64828C32.9561 6.5158 32.9417 6.38301 32.9123 6.25355C32.8567 6.00834 32.7451 5.76297 32.533 5.61537C32.4871 5.58353 32.4843 5.6918 32.4938 5.71154C32.6951 6.12378 32.7557 6.52695 32.5508 6.95256C32.3658 7.33694 32.0935 7.65555 31.7489 7.90681C31.38 8.17575 30.9608 8.34946 30.5342 8.50455C30.0734 8.67222 29.6024 8.81728 29.1115 8.85899C28.7411 8.89052 28.305 8.85453 27.9968 8.64101C27.6501 8.40074 27.2406 8.22543 26.8395 8.10027C26.5562 8.01254 26.2663 7.94901 25.9725 7.90968ZM15.7426 35.9603C15.0157 36.7308 14.1202 37.3055 13.0791 37.5448C12.5764 37.6602 12.0579 37.6994 11.5423 37.686C11.5509 37.6882 11.5599 37.6913 11.5683 37.6935C11.5939 37.8713 11.6384 38.0347 11.6927 38.19C12.2189 38.1962 12.7442 38.1447 13.2547 38.0096C14.3166 37.7285 15.3258 37.0908 15.8085 36.0797C15.8264 36.0425 15.8026 35.8968 15.7426 35.9603ZM12.5143 25.572C12.7186 25.2097 13.0114 24.875 13.3486 24.6308C13.682 24.3894 14.0691 24.22 14.4726 24.1391C14.9724 24.0389 15.4754 24.1225 15.9791 24.112C16.0257 24.1111 16.031 24.0221 16.001 23.9987C15.424 23.5461 14.6164 23.5036 13.8839 23.6987C13.8889 23.6668 13.894 23.6358 13.8989 23.6035C13.9373 23.3514 13.9655 23.0974 13.9709 22.8423C13.98 22.4128 13.9177 21.9484 13.726 21.5596C13.5207 21.1429 13.2082 20.8216 12.8034 20.5921C12.5332 20.4388 12.1106 20.2251 11.8001 20.3807C11.7583 20.4016 11.7522 20.505 11.8032 20.5199C11.9551 20.5641 12.1146 20.5652 12.2665 20.6117C12.441 20.6652 12.6216 20.7519 12.7571 20.8754C13.0166 21.1122 13.1375 21.5251 13.2203 21.8591C13.3087 22.215 13.3174 22.5947 13.2954 22.9589C13.2841 23.149 13.2618 23.3383 13.2351 23.5269C13.2219 23.62 13.2055 23.7125 13.1959 23.8062C13.1897 23.8679 13.1896 23.9173 13.1929 23.9644C13.0499 24.0381 12.9144 24.1198 12.792 24.2096C12.3944 24.5009 12.0761 24.87 11.8446 25.3051C11.7243 25.5311 11.5634 25.8623 11.535 26.1672C10.9199 26.0529 10.3184 26.1196 9.76441 26.4441C9.74069 26.4581 9.73639 26.5417 9.77413 26.538C10.1389 26.5019 10.5074 26.496 10.8726 26.5304C11.4742 26.5871 12.0651 26.7391 12.573 27.0745C12.7157 27.1686 12.8493 27.2743 12.9918 27.3685C13.1337 27.4625 13.2626 27.5857 13.4157 27.6595C13.5036 27.7018 13.5399 27.5835 13.5305 27.5222C13.4975 27.3033 13.3126 27.0721 13.1507 26.9262C13.0232 26.8114 12.8762 26.7181 12.7299 26.6293C12.5614 26.5269 12.3848 26.438 12.2025 26.3633C12.2259 26.2764 12.2461 26.1893 12.2713 26.1153C12.3351 25.9274 12.4167 25.7452 12.5143 25.572ZM46.9385 19.499C46.4441 19.0733 45.6935 18.7553 45.0265 18.8986C45.1155 18.0044 45.0443 17.0598 44.5389 16.3635C44.9524 16.2855 45.3639 16.146 45.7073 15.8973C45.8692 15.78 46.096 15.5491 46.1869 15.3744C46.1869 15.3744 46.431 15.3883 46.6318 15.3545C47.6485 15.1832 48.4533 14.1957 48.5143 13.1411C48.3839 13.0645 48.2502 12.9992 48.1104 12.961C48.0744 13.3276 47.93 13.8242 47.6384 14.174C47.4469 14.4039 47.1047 14.7789 46.3308 14.9522C46.3963 14.5526 46.2805 14.1355 45.9828 13.8501C45.932 13.8014 45.9175 13.9017 45.9352 13.9305C46.4292 14.7362 45.3578 15.3972 44.5453 15.6271C43.7039 15.8652 42.7567 15.7777 41.9419 15.5825C40.1751 15.1593 38.7518 14.4041 37.3485 13.4191C37.2488 13.349 37.231 13.5279 37.2885 13.5766C38.9022 14.9499 40.7353 16.3003 43.0944 16.4387C43.338 16.453 43.5969 16.4575 43.859 16.4446C44.2365 16.8635 44.3642 17.4111 44.4059 17.9635C44.4515 18.5673 44.4258 19.2 44.3219 19.7966C44.2149 20.4108 44.0074 21.0205 43.6273 21.5214C43.4531 21.7512 43.255 21.9728 43.0086 22.1269C42.8092 22.2518 42.4728 22.3629 42.3548 22.5756C42.3486 22.5868 42.3462 22.6091 42.3586 22.6175C42.5446 22.7433 42.8262 22.6403 43.0374 22.544C42.9864 23.2234 42.6286 23.848 42.1597 24.3477C41.894 24.6308 41.5871 24.872 41.2649 25.0875C41.0946 25.2013 40.916 25.3005 40.7439 25.411C40.5724 25.5212 40.3487 25.6185 40.1417 25.6285C40.1151 25.6298 40.1017 25.6869 40.1272 25.6983C40.6283 25.9191 41.1023 25.7134 41.5461 25.4569C41.9534 25.2215 42.3475 24.9384 42.6702 24.5943C43.2627 23.9628 43.613 23.1143 43.5434 22.2487C43.6705 22.1532 43.7888 22.0459 43.898 21.9289C44.3876 21.4044 44.6749 20.7514 44.8322 20.0568C44.8648 19.9127 44.896 19.7619 44.9247 19.6072C44.9919 19.6131 45.06 19.6104 45.1244 19.5893C45.5858 19.4384 46.0711 19.4576 46.512 19.6674C46.7456 19.7785 46.9646 19.9095 47.1719 20.0648C47.3972 20.2334 47.6349 20.4074 47.6797 20.7066C47.6878 20.7606 47.743 20.749 47.7421 20.6974C47.734 20.2055 47.2829 19.7958 46.9385 19.499ZM49.0901 17.0793C48.8903 16.9489 48.674 16.8457 48.4479 16.7696C48.3414 16.7337 48.2279 16.6933 48.1156 16.6847C47.9916 16.6753 47.8709 16.6716 47.747 16.6578C47.704 16.653 47.6999 16.7478 47.7405 16.7575C47.8776 16.7904 47.9886 16.8433 48.1137 16.9067C48.2135 16.9573 48.3191 16.9973 48.4199 17.0468C48.6384 17.1539 48.8449 17.2899 49.0398 17.4351C49.1436 17.5125 49.2414 17.5988 49.3355 17.689C49.4189 17.6168 49.4936 17.5383 49.5601 17.4546C49.4143 17.3165 49.2576 17.1887 49.0901 17.0793ZM43.5367 25.2379C43.3081 25.8974 43.114 26.5512 42.7106 27.1356C42.3317 27.6846 41.8359 28.1591 41.2583 28.4948C40.6568 28.8443 39.9332 29.0877 39.2306 29.0277C38.5362 28.9683 38.0507 28.5631 37.7851 27.9365C37.7692 27.8991 37.7459 27.8665 37.7178 27.8384C37.7791 27.6946 37.8396 27.5505 37.8865 27.401C38.1778 26.4758 38.1448 25.5865 37.9168 24.6579C37.9087 24.6247 37.8927 24.5961 37.8733 24.5698C38.0413 24.3233 38.1938 24.0651 38.3196 23.7987C38.6371 23.125 38.8585 22.3914 38.9487 21.6467C39.3387 21.8418 39.7675 21.955 40.2058 21.9499C40.4374 21.9472 40.6703 21.9244 40.8908 21.8484C41.115 21.7712 41.3007 21.6187 41.4687 21.4564C41.5125 21.4141 41.4848 21.2432 41.404 21.2676C40.6222 21.5021 39.7014 21.584 38.9889 21.1181C38.9921 21.0252 38.9954 20.9323 38.9943 20.8394C38.9889 20.438 38.9209 20.0302 38.7995 19.6385C38.9148 19.6349 39.0307 19.6162 39.143 19.5831C39.3723 19.5155 39.5914 19.3834 39.7947 19.2586C40.0256 19.1167 40.2329 18.9548 40.4214 18.7606C40.4977 18.6819 40.5681 18.5991 40.6308 18.5091C40.7268 18.3714 40.7816 18.2349 40.8342 18.0768C40.9131 17.8386 40.9849 17.5638 40.9598 17.3119C40.9537 17.2506 40.8549 17.1008 40.8104 17.2259C40.7364 17.4345 40.6781 17.6195 40.5399 17.7975C40.4576 17.9036 40.3566 17.9905 40.2644 18.088C40.1823 18.1748 40.0955 18.2553 40.0014 18.3289C39.8043 18.4829 39.5911 18.6126 39.3702 18.7293C39.2632 18.7859 39.1549 18.8394 39.0436 18.8868C38.9959 18.9072 38.9481 18.9269 38.8994 18.9446C38.8758 18.9531 38.8519 18.9604 38.8282 18.9687C38.8282 18.9687 38.8008 18.9773 38.7951 18.9784C38.7718 18.983 38.7481 18.986 38.7183 18.9919C38.712 18.9914 38.6994 18.9895 38.6882 18.9878C38.647 18.9741 38.58 18.9527 38.5698 18.9508C38.5527 18.9476 38.5363 18.9505 38.5199 18.9491C38.0163 17.9746 37.1302 17.2291 35.9524 17.1832C35.9346 17.1826 35.9225 17.1882 35.9061 17.1891C35.8882 17.1105 35.8696 17.0318 35.8443 16.9536C35.6271 16.2809 35.1811 15.4203 34.4471 15.2074C34.4117 15.1972 34.4073 15.2776 34.4256 15.2939C34.7262 15.5629 35.0282 15.8276 35.2125 16.1941C35.3789 16.5252 35.4422 16.8678 35.4648 17.2344C35.5078 17.928 35.3013 18.6142 34.9364 19.2003C34.5706 19.7882 34.0786 20.281 33.5135 20.6781C32.8317 21.1572 32.1298 21.3698 31.3135 21.462C31.2907 21.4029 31.2748 21.341 31.2467 21.2845C30.9913 20.7683 30.57 20.3638 30.0689 20.086C29.8231 19.9495 29.5604 19.8489 29.2841 19.7947C28.9848 19.7361 28.734 19.7729 28.4456 19.8616C28.3474 19.8917 28.3848 20.0931 28.4877 20.0853C29.4747 20.0108 30.4164 20.5391 30.7294 21.4961C30.8643 21.9085 30.8802 22.336 30.7858 22.7595C30.7371 22.9783 30.6559 23.1834 30.5641 23.3872C30.4597 23.6195 30.3915 23.8679 30.2629 24.0891C30.2075 24.1842 30.3341 24.4412 30.4597 24.3627C30.725 24.1964 30.9845 23.9923 31.1463 23.7183C31.2835 23.4858 31.3705 23.2143 31.4246 22.9508C31.4923 22.6209 31.4961 22.2691 31.4407 21.9298C32.3026 22.089 33.2107 21.6478 33.9058 21.1783C34.6104 20.7023 35.2488 20.0635 35.6187 19.2901C35.8424 18.8225 35.9742 18.3224 35.976 17.8176C37.6109 17.9453 38.3061 19.6182 38.3067 21.0822C38.3066 21.1186 38.3083 21.1552 38.3074 21.1912C38.2647 22.8495 37.7334 24.5411 36.506 25.7033C36.4806 25.7274 36.4817 25.8427 36.5334 25.8156C36.7224 25.7164 36.8766 25.6723 37.0455 25.5274C37.2246 25.3737 37.3875 25.2031 37.5377 25.0211C37.5512 25.0048 37.5635 24.9873 37.5767 24.9707C37.7332 26.4106 37.2205 28.0419 36.1409 28.9989C34.9338 30.0689 33.2607 30.1665 31.8071 29.5809C31.7061 29.5403 31.7411 29.7436 31.7833 29.7796C32.1486 30.0907 32.5126 30.2743 32.9697 30.3773C32.8925 30.4405 32.8116 30.4996 32.7276 30.5534C32.4013 30.7618 32.026 30.8824 31.6451 30.9418C30.8243 31.0698 29.9618 30.8419 29.2398 30.4523C29.1789 30.4195 29.165 30.5663 29.2075 30.5959C29.828 31.0278 30.5473 31.3617 31.3031 31.4368C31.3033 31.4438 31.3042 31.4507 31.3044 31.4577C31.3049 31.5835 31.2955 31.7088 31.2768 31.8331C31.2596 31.9482 31.2348 32.0621 31.202 32.1737C31.1858 32.2294 31.1675 32.2847 31.1472 32.3393C31.1074 32.4466 31.078 32.5575 31.0361 32.664C31.0203 32.7038 31.0633 32.8356 31.117 32.7729C31.2136 32.6602 31.2894 32.5493 31.3501 32.4134C31.4057 32.2887 31.4515 32.1595 31.487 32.0279C31.5248 31.8877 31.5493 31.7436 31.5622 31.5991C31.5665 31.5515 31.5703 31.5026 31.5732 31.4534C31.709 31.4553 31.8454 31.4502 31.9827 31.4335C32.4056 31.3817 32.8217 31.239 33.1858 31.0177C33.3718 30.9047 33.6898 30.7066 33.8321 30.4762C34.0009 30.4771 34.1697 30.4701 34.337 30.4472C34.9749 30.3598 35.5978 30.1356 36.1371 29.7824C36.2201 30.017 36.3444 30.2496 36.4165 30.4636C36.5323 30.8069 36.6471 31.1467 36.7138 31.5037C36.8643 32.3084 36.8985 33.1899 36.5269 33.9403C36.5218 33.9504 36.5291 33.9733 36.5382 33.9571C36.9458 33.2318 37.3057 32.4958 37.2791 31.6427C37.2654 31.2042 37.173 30.7528 37.0297 30.3393C36.9203 30.0235 36.8006 29.6934 36.5934 29.431C36.8737 29.1815 37.1128 28.8939 37.3186 28.5841C37.6407 29.1565 38.3061 29.532 38.939 29.6436C39.7914 29.7939 40.6937 29.5847 41.4427 29.1656C42.768 28.4237 43.8668 26.8372 43.652 25.2737C43.6424 25.2032 43.5681 25.1475 43.5367 25.2379ZM45.5436 24.3349C45.3182 23.731 44.9871 23.2286 44.6126 22.71C44.5534 22.6283 44.5026 22.7734 44.5346 22.8272C45.0949 23.7676 45.3521 24.9876 45.3731 26.0729C45.383 26.584 45.3172 27.0772 45.2288 27.5668C45.239 27.5209 45.2444 27.494 45.2444 27.494C45.4881 27.4464 45.7067 27.3663 45.904 27.2617C45.9481 26.8703 45.9598 26.4758 45.9278 26.082C45.8794 25.4825 45.7541 24.8985 45.5436 24.3349ZM9.39039 23.1852C9.61124 23.528 9.84928 23.8721 10.1999 24.0923C10.2292 24.1106 10.2399 24.0466 10.2303 24.0303C9.85422 23.3826 9.43831 22.7764 9.22256 22.0496C9.15409 21.819 9.10139 21.5833 9.05872 21.3459C8.94774 21.4494 8.84886 21.5569 8.75396 21.6657C8.79424 21.8281 8.83819 21.9895 8.89503 22.1488C9.02337 22.5078 9.18371 22.8642 9.39039 23.1852ZM17.738 39.0191C17.4029 39.3332 16.9933 39.5509 16.586 39.758C16.5856 39.7584 16.5849 39.7585 16.5844 39.7588C16.6649 39.8528 16.7496 39.9391 16.8379 40.0184C17.1994 39.8052 17.4384 39.5705 17.6697 39.2001C17.788 39.0106 17.7922 38.9683 17.738 39.0191ZM34.4412 32.863C34.3762 32.9262 34.2781 32.9485 34.2038 32.9998C34.1307 33.0501 34.0546 33.1071 33.988 33.1655C33.8503 33.2864 33.7297 33.4244 33.5882 33.5418C33.3248 33.7603 33.0156 33.9411 32.7034 34.0805C32.1204 34.3405 31.4531 34.4631 30.8316 34.2658C30.5949 34.1907 30.3681 34.0518 30.2046 33.8636C30.0522 33.6884 29.9395 33.483 29.7916 33.3044C29.5327 32.9915 29.2241 32.7181 28.8688 32.5194C28.1101 32.0952 27.2987 32.0716 26.4839 32.2025C26.6561 31.8081 26.7804 31.3921 26.8514 30.9658C26.9954 30.1025 26.9724 29.0893 26.6314 28.2602C26.9845 27.9518 27.2742 27.5859 27.489 27.1788C27.8667 27.7005 28.5958 28.0193 29.1658 28.1465C30.0408 28.3419 31.0544 28.3437 31.8784 27.958C32.7678 27.5416 33.4446 26.599 33.8554 25.732C34.0023 25.4215 34.1175 25.0911 34.1847 24.7555C34.227 24.7607 34.2695 24.7628 34.3135 24.7544C34.4061 24.7364 34.4991 24.6924 34.584 24.652C34.763 24.5669 34.923 24.4477 35.0688 24.3144C35.3618 24.0466 35.601 23.7265 35.8091 23.3899C36.2521 22.6732 36.5199 21.8096 36.2645 20.9776C36.2572 20.9538 36.2357 20.9862 36.2388 21.0004C36.4119 21.7832 35.9438 22.5258 35.5199 23.1469C35.3316 23.4229 35.1243 23.6945 34.8754 23.9189C34.759 24.0238 34.6332 24.119 34.4983 24.199C34.4163 24.2475 34.3311 24.2904 34.2431 24.3271C34.2722 23.8563 34.1875 23.3863 33.9312 22.9552C33.8883 22.8834 33.8047 22.9196 33.8094 22.9995C33.8586 23.8706 33.7288 24.6792 33.3079 25.4524C32.951 26.1081 32.4551 26.8014 31.8212 27.2141C31.2103 27.612 30.4054 27.6607 29.6978 27.577C28.9246 27.4854 28.3022 27.1397 27.7159 26.6681C28.0092 25.8573 28.0503 24.9485 27.8171 24.0944C27.6793 23.5894 27.427 23.1142 27.0946 22.7097C26.9377 22.519 26.7252 22.3022 26.4846 22.1526C26.6471 21.8953 26.7924 21.6266 26.9134 21.345C27.285 20.4799 27.5933 19.121 27.1153 18.2013C27.8762 18.2526 28.7114 17.9595 29.3599 17.605C29.6135 17.4664 29.8643 17.3133 30.0804 17.1286C30.1083 17.1221 30.1333 17.1189 30.1638 17.1108C30.3221 17.0691 30.4861 17.0608 30.6492 17.0613C30.9479 17.0621 31.2467 17.0973 31.5396 17.1544C31.8177 17.2087 32.09 17.2907 32.3521 17.3985C32.575 17.4901 32.8245 17.67 33.0721 17.6294C33.0769 17.6286 33.0793 17.6202 33.0775 17.6163C32.9491 17.3355 32.6613 17.1774 32.3968 17.0412C32.0948 16.8856 31.7722 16.7646 31.444 16.6774C31.1584 16.6014 30.8624 16.5607 30.5673 16.5459C30.5594 16.5454 30.5508 16.5455 30.5428 16.5452C30.5844 16.4573 30.621 16.3655 30.6457 16.2648C30.8254 15.533 30.549 14.8211 30.282 14.1509C30.217 13.9879 30.0107 14.0125 30.0479 14.2039C30.1541 14.7475 30.2721 15.3376 30.1138 15.882C29.9541 16.4319 29.5093 16.7385 29.0351 17.0067C28.5638 17.2732 28.0759 17.5092 27.5382 17.6034C26.9373 17.7087 26.2738 17.6148 25.7276 17.3366C25.6741 17.3094 25.6669 17.4218 25.6862 17.4479C25.9491 17.803 26.2809 18.0123 26.6454 18.1195C26.6393 18.2208 26.6449 18.3246 26.6446 18.4257C26.644 18.6897 26.6527 18.9535 26.6414 19.2175C26.6213 19.6831 26.5354 20.1466 26.393 20.5899C26.1115 21.4665 25.5994 22.2363 24.9491 22.8833C24.3106 23.5187 23.54 24.0133 22.7305 24.4009C22.2776 24.6176 21.7942 24.8182 21.2812 24.7784C20.707 24.7338 20.2185 24.3021 20.058 23.7619C20.0472 23.7261 20.0118 23.7264 19.9975 23.7592C19.8577 24.0797 20.0128 24.3529 20.107 24.6552C20.1946 24.9359 20.1 25.3139 19.9833 25.5803C19.859 25.8642 19.6418 26.1145 19.3579 26.239C19.1348 26.3368 18.8854 26.353 18.6418 26.3575C18.1923 26.3657 17.6435 26.2842 17.3586 25.8967C17.2685 25.7739 17.1815 25.9322 17.2298 26.0294C17.3804 26.3339 17.6167 26.5382 17.8923 26.66C17.8218 26.9417 17.7734 27.2292 17.6978 27.5106C17.5944 27.8945 17.4589 28.2682 17.2916 28.6288C17.0015 29.2544 16.6228 29.8305 16.1228 30.3085C14.9904 31.391 13.2908 31.7739 11.888 30.9986C11.8258 30.9642 11.8226 31.1072 11.8555 31.1367C12.5112 31.7255 13.3524 31.9492 14.1876 31.8895C14.1417 31.9702 14.0943 32.0502 14.0403 32.1256C13.85 32.3911 13.6161 32.607 13.3443 32.7877C12.8443 33.12 12.2834 33.3522 11.6906 33.4509C10.501 33.649 9.26046 33.2638 8.33519 32.4833C8.33837 32.4864 8.34092 32.4896 8.3441 32.493C8.32707 32.5942 8.32006 32.6879 8.3078 32.7855C9.22463 33.6603 10.4274 34.1956 11.7189 34.0497C12.4191 33.9708 13.1214 33.7247 13.701 33.3217C13.9795 33.1283 14.2269 32.8961 14.4282 32.6224C14.6054 32.3813 14.8051 32.0834 14.8716 31.7777C15.3791 31.6465 15.8641 31.4148 16.2798 31.0972C16.7855 30.7106 17.2123 30.2227 17.5465 29.6797C17.5129 29.749 17.4768 29.8157 17.4358 29.8794C17.529 30.06 17.6371 30.2275 17.7393 30.3619C17.8742 30.5392 18.0299 30.6929 18.1944 30.8356C18.046 31.8049 17.6444 32.7711 16.9024 33.4345C16.117 34.1367 15.0153 34.4714 13.9917 34.1518C13.8088 34.0946 13.8535 34.4271 13.9792 34.4788C14.9742 34.8897 16.1373 34.7093 17.0204 34.1129C17.0236 35.431 17.7234 36.7123 18.7956 37.4865C19.5246 38.0129 20.3913 38.306 21.285 38.3718C21.6761 38.4006 22.0697 38.3917 22.456 38.3201C22.6617 38.2818 22.8669 38.2379 23.0593 38.1545C23.244 38.0742 23.3497 37.9577 23.5153 37.8561C23.5438 37.8386 23.5615 37.7331 23.5092 37.7413C23.3255 37.7702 23.1152 37.7537 22.9268 37.7765C22.7454 37.7984 22.5647 37.826 22.3829 37.8443C22.0026 37.8827 21.6116 37.8911 21.2312 37.8491C20.5188 37.7704 19.811 37.5253 19.2341 37.0943C18.1683 36.298 17.5744 34.9401 17.7339 33.6184C17.7393 33.574 17.7325 33.5319 17.718 33.4926C18.2691 32.864 18.6183 32.0691 18.7724 31.2478C18.8846 31.3118 18.999 31.3726 19.1178 31.4268C19.6873 31.6862 20.315 31.8186 20.936 31.8737C21.2801 31.9043 21.6285 31.9076 21.9727 31.8791C22.3015 31.8518 22.5663 31.775 22.8692 31.6484C22.9566 31.612 22.9402 31.4027 22.8351 31.4045C21.6726 31.4238 20.494 31.4769 19.4013 31.0042C18.9759 30.8201 18.5689 30.5447 18.2797 30.1784C18.1417 30.0036 18.0275 29.8135 17.946 29.606C17.8892 29.4611 17.8646 29.3091 17.8309 29.1603C18.0197 28.7627 18.163 28.3432 18.2778 27.9188C18.3466 27.6645 18.4157 27.4082 18.4535 27.1472C18.485 26.9289 18.4804 26.8391 18.7386 26.849C19.1625 26.8649 19.5935 26.7476 19.9395 26.5019C20.1637 26.3428 20.35 26.1296 20.476 25.8852C20.5078 25.8234 20.7627 25.1978 20.6909 25.1607C20.9501 25.2946 21.2415 25.3707 21.5251 25.382C22.7193 25.4293 23.9366 24.647 24.8428 23.9383C25.3795 23.5184 25.8649 23.0298 26.2637 22.479C26.9806 22.9712 27.2796 24.1711 27.3129 24.9507C27.3524 25.8814 27.0452 26.8455 26.4237 27.5464C25.2139 28.9111 23.1844 29.01 21.6313 28.2203C21.514 28.1605 21.5157 28.3765 21.5762 28.429C22.8126 29.5022 24.7283 29.4606 26.0941 28.653C26.2091 29.2191 26.3031 29.7711 26.2508 30.3724C26.1851 31.1285 25.9601 31.8616 25.5591 32.5082C24.5111 34.1989 22.3529 34.8911 20.4874 34.1364C20.4229 34.1102 20.4151 34.2465 20.4549 34.2744C21.3356 34.8941 22.452 35.0072 23.4858 34.7518C23.5053 34.8581 23.5293 34.9626 23.551 35.0524C23.6089 35.2935 23.6975 35.527 23.8051 35.7501C24.0361 36.2292 24.3981 36.6472 24.8259 36.9612C25.6053 37.5331 26.9091 37.9397 27.7707 37.3163C27.7988 37.2959 27.8009 37.2083 27.7555 37.2071C27.2657 37.1932 26.774 37.2492 26.2894 37.1521C25.8442 37.063 25.4152 36.8942 25.0611 36.6045C24.7237 36.3286 24.4665 35.9694 24.2812 35.5764C24.1919 35.3868 24.1274 35.1841 24.0826 34.9793C24.0544 34.8505 24.0513 34.7102 24.0329 34.5758C24.6315 34.3448 25.1803 33.9919 25.6075 33.5413C25.8528 33.2827 26.0628 32.9961 26.2394 32.6906C27.0482 32.6549 27.9453 32.6492 28.62 33.1125C29.2574 33.5502 29.6608 34.2572 29.9123 34.9723C30.1744 35.7178 30.2272 36.4654 30.1836 37.2493C30.1608 37.6561 30.0782 38.0527 30.0003 38.4513C30.0462 38.3842 30.089 38.3178 30.1251 38.2533C30.246 38.3392 30.3664 38.4079 30.4861 38.4662C30.9663 37.3911 31.0383 36.145 30.688 35.001C30.7606 35.0191 30.8334 35.0365 30.907 35.0505C31.6236 35.1874 32.3975 35.071 33.0446 34.7352C33.4113 34.5449 33.688 34.2871 33.9695 33.9924C34.0872 33.8692 34.1925 33.7357 34.291 33.5969C34.363 33.4956 34.4116 33.3835 34.4455 33.2641C34.4737 33.1649 34.4665 33.0563 34.5057 32.96C34.5201 32.9264 34.4929 32.8127 34.4412 32.863Z" fill="#0E7490"/>
<path opacity="0.2" d="M11.9219 17.6211C12.6902 18.2372 13.7058 18.5679 14.6801 18.651C15.6428 18.733 16.5722 18.4278 17.1916 17.6655C17.3277 17.4982 17.4489 17.2888 17.5471 17.0613C17.6944 17.6942 17.9444 18.2904 18.3665 18.7935C18.6772 19.1639 19.1857 19.6333 19.7114 19.6766C19.2967 20.0939 19.0002 20.706 19.1612 21.2795C19.1877 21.3735 19.3792 21.5306 19.4579 21.3982C19.6329 21.1037 19.7182 20.7722 19.9139 20.4867C20.0636 20.2686 20.2343 20.0708 20.4456 19.9102C20.675 19.7357 20.928 19.6151 21.2047 19.5374C21.3289 19.5026 21.4546 19.4766 21.5831 19.4643C21.6498 19.458 21.7146 19.447 21.7807 19.4357C21.8598 19.4221 21.9112 19.4 21.988 19.3752C22.0678 19.3492 22.0565 19.2075 21.9907 19.1702C21.8055 19.0655 21.6265 19.0058 21.4113 19.0016C21.2364 18.9983 21.0586 19.0107 20.8869 19.0457C20.5513 19.1144 20.2284 19.257 19.9542 19.4626C19.9481 19.4556 19.943 19.4452 19.9368 19.4411C19.5104 19.1572 19.069 18.9032 18.7633 18.4795C18.3934 17.967 18.1961 17.3258 18.1151 16.7044C18.0356 16.0956 18.0684 15.4028 18.4152 14.873C18.706 14.4288 19.1544 14.0989 19.4203 13.6433C19.4531 13.5869 19.4435 13.4244 19.3437 13.4419C18.6289 13.5675 17.9243 14.1245 17.5889 14.7598C17.5852 14.7668 17.5831 14.7741 17.5795 14.7813C17.5707 14.7737 17.5613 14.766 17.5532 14.7582C17.4836 14.692 17.419 14.6203 17.3591 14.5453C17.2271 14.3802 17.1249 14.1966 17.0486 13.9997C16.9535 13.7538 16.8975 13.4769 16.8879 13.2137C16.8798 12.9873 16.8808 12.734 16.9518 12.5188C16.9793 12.4351 16.8782 12.2491 16.8171 12.3803C16.7574 12.5085 16.672 12.6368 16.6287 12.7706C16.5891 12.893 16.5641 13.0209 16.5453 13.1479C16.4972 13.4717 16.5286 13.7844 16.6249 14.0977C16.7642 14.5515 17.1096 14.9084 17.1999 15.3837C17.265 15.7265 17.2091 16.0919 17.0438 16.3994C16.9642 16.5476 16.8773 16.6898 16.7943 16.836C16.6962 17.0089 16.5814 17.1732 16.4477 17.3203C15.8861 17.9372 15.1004 18.0499 14.3084 17.9116C13.5696 17.7824 12.8596 17.5184 12.2673 17.0462C11.9387 16.7842 11.7106 16.3788 11.5361 15.9494C11.5544 16.0002 11.5683 16.0293 11.5683 16.0293C11.5683 16.0293 11.3549 16.0811 11.0526 16.2572C11.222 16.8076 11.5465 17.3202 11.9219 17.6211ZM25.0399 5.48273C25.6698 5.80772 26.3847 6.15037 26.792 6.76117C26.8352 6.82598 26.8753 6.7212 26.8586 6.68044C26.7108 6.31613 26.505 6.03907 26.2153 5.77173C25.8758 5.45821 25.4978 5.16874 25.0893 4.95267C24.8393 4.82035 24.5788 4.70984 24.3135 4.6116C24.221 4.77688 24.1513 4.94104 24.1073 5.09708C24.1065 5.09693 24.1056 5.09693 24.1046 5.09677C24.1054 5.09708 24.1064 5.09708 24.1071 5.0974C24.4289 5.19692 24.7407 5.32828 25.0399 5.48273ZM14.7234 13.5814C14.7662 13.688 14.8629 13.6242 14.8436 13.5279C14.7774 13.1975 14.7779 12.8373 14.7556 12.5C14.7344 12.1768 14.7441 11.8521 14.7793 11.5302C14.7976 11.3624 14.8251 11.1955 14.8592 11.0302C14.8419 11.0304 14.6791 11.0348 14.4269 11.0982C14.4139 11.181 14.397 11.263 14.3879 11.3463C14.3519 11.6756 14.3492 12.008 14.3779 12.338C14.4167 12.7854 14.5575 13.168 14.7234 13.5814ZM19.5787 8.88654C20.0902 9.51453 20.4436 10.2309 20.7745 10.9648C21.0648 11.609 21.4151 12.2942 22.0154 12.7043C21.8749 12.922 21.7993 13.229 21.7519 13.4425C21.6687 13.8161 21.646 14.1993 21.7093 14.5778C21.7663 14.9181 21.8823 15.2638 22.0531 15.5641C22.1584 15.7491 22.294 15.9234 22.4337 16.0838C22.5539 16.222 22.6969 16.389 22.8762 16.4446C22.9513 16.4678 22.9505 16.3377 22.9303 16.2992C22.7844 16.022 22.5779 15.7954 22.4531 15.5031C22.322 15.1967 22.2251 14.8835 22.2052 14.549C22.1865 14.2345 22.206 13.92 22.2878 13.615C22.3284 13.4637 22.3806 13.3158 22.445 13.1728C22.4767 13.1022 22.509 13.0436 22.5359 12.9857C22.7047 13.0527 22.8808 13.0995 23.0612 13.1166C23.4997 13.1581 23.7887 12.9607 24.1073 12.6731C24.1223 12.6596 24.1266 12.6016 24.096 12.6182C23.7393 12.8117 23.2051 12.7314 22.8448 12.5727C22.491 12.4168 22.2053 12.076 21.9991 11.7579C21.5598 11.0794 21.3138 10.2987 20.8946 9.60911C20.4928 8.94816 19.9185 8.37287 19.2969 7.91891C19.2119 7.85681 19.1254 7.79615 19.038 7.7366C18.9619 7.89567 18.9125 8.03547 18.8913 8.14629C19.1413 8.37239 19.3665 8.62588 19.5787 8.88654ZM25.9725 7.90968C25.6755 7.87003 25.3856 7.8963 25.088 7.91175C25.027 7.91493 25.03 8.04407 25.0894 8.05044C25.5978 8.10537 26.1376 8.2423 26.6193 8.41411C27.1492 8.60311 27.6603 8.88144 28.0805 9.25802C28.4507 9.58969 28.7528 10.0196 28.9639 10.4689C29.0649 10.6834 29.1398 10.9038 29.198 11.1331C29.2269 11.2476 29.2642 11.3558 29.216 11.4726C29.1652 11.5958 29.0464 11.652 28.9263 11.6794C28.7381 11.7224 28.5539 11.7616 28.3724 11.83C27.9821 11.9773 27.4719 12.2289 27.307 12.6365C27.2979 12.659 27.2974 12.733 27.3384 12.729C27.5415 12.7096 27.7245 12.5856 27.9058 12.4997C28.0834 12.4158 28.2662 12.3494 28.4549 12.2954C28.8509 12.1821 29.2574 12.1411 29.6678 12.1735C30.0158 12.2009 30.3626 12.288 30.6817 12.4305C30.8686 12.5141 31.0428 12.6201 31.2307 12.7031C31.4329 12.7925 31.6421 12.8652 31.8313 12.982C31.856 12.9973 31.8669 12.9438 31.8585 12.9295C31.7356 12.7231 31.6115 12.4774 31.4474 12.3039C31.2799 12.1268 31.0571 12.0222 30.8371 11.9252C30.6157 11.8278 30.3484 11.7985 30.1395 11.6848C29.9705 11.5931 29.8987 11.4034 29.8572 11.2262C29.7948 10.9598 29.7231 10.7121 29.6121 10.4605C29.443 10.0766 29.2107 9.73586 28.9343 9.42966C29.3473 9.44113 29.7642 9.37011 30.1592 9.2612C30.4546 9.17968 30.7681 9.08207 31.0754 8.96106C31.22 8.9601 31.3649 8.93224 31.5098 8.92985C31.6504 8.92762 31.7905 8.93749 31.9301 8.95198C32.2416 8.98431 32.5486 9.06026 32.8358 9.1862C33.3355 9.40514 33.7821 9.77328 34.1837 10.1368C34.191 10.1433 34.196 10.1245 34.1942 10.1201C34.0649 9.79318 33.8816 9.49654 33.6116 9.26725C33.3704 9.06249 33.1006 8.89418 32.8137 8.76123C32.5502 8.6391 32.2672 8.54547 31.9794 8.49134C32.1985 8.34039 32.3983 8.16826 32.5599 7.96366C32.6172 7.89121 32.6589 7.76781 32.7301 7.71478C32.8045 7.65937 32.9401 7.66813 33.0272 7.66781C33.5094 7.6667 33.9936 7.65316 34.4698 7.74329C35.1281 7.8678 35.7615 8.09263 36.3495 8.41395C36.8587 8.69212 37.3359 9.04975 37.7485 9.45753C38.2311 9.93457 38.614 10.4998 39.0912 10.9783C39.144 11.0312 39.1693 10.9149 39.1624 10.8834C39.0844 10.518 38.9237 10.1747 38.7112 9.85544C38.8444 9.83155 38.9745 9.78792 39.1065 9.75401C39.3113 9.7013 39.5183 9.65943 39.7282 9.63316C40.1038 9.58603 40.4853 9.57918 40.8612 9.62758C41.4187 9.6994 41.9847 9.89636 42.454 10.2011C42.7242 10.3766 42.9531 10.5992 43.1866 10.8186C43.2256 10.8552 43.2371 10.77 43.228 10.7474C43.0832 10.3871 42.8387 10.0841 42.5431 9.83554C42.7532 9.71404 42.9659 9.59287 43.1906 9.50832C43.4931 9.39447 43.8214 9.344 44.1439 9.34655C44.4574 9.3491 44.7607 9.4104 45.0604 9.49925C45.2038 9.54176 45.3446 9.59399 45.4836 9.64876C45.5537 9.67631 45.6342 9.73044 45.7103 9.73793C45.7774 9.74446 45.7965 9.72838 45.8743 9.75083C45.907 9.76022 45.9084 9.69 45.895 9.67487C45.7844 9.55004 45.7237 9.451 45.5833 9.35578C45.4258 9.2491 45.2591 9.16041 45.0838 9.08637C44.7324 8.93797 44.3376 8.86281 43.9566 8.85772C43.6104 8.8531 43.2683 8.91631 42.9431 9.03271C42.7786 9.09162 42.6145 9.16184 42.4661 9.25499C42.3288 9.34129 42.2304 9.43333 42.1448 9.54924C41.8417 9.36852 41.5098 9.23556 41.1786 9.15627C40.6897 9.03924 40.1791 9.0214 39.6807 9.0808C39.4473 9.10866 39.2143 9.15165 38.9862 9.20738C38.7922 9.25467 38.5486 9.29989 38.3825 9.42536C37.8706 8.83638 37.1974 8.35265 36.5788 8.00299C35.942 7.64329 35.2403 7.38948 34.5232 7.24777C34.1635 7.17676 33.7963 7.13265 33.4298 7.12533C33.3156 7.1231 33.0403 7.17484 32.982 7.03393C32.9389 6.92947 32.9659 6.76165 32.9613 6.64828C32.9561 6.5158 32.9417 6.38301 32.9123 6.25355C32.8567 6.00834 32.7451 5.76297 32.533 5.61537C32.4871 5.58353 32.4843 5.6918 32.4938 5.71154C32.6951 6.12378 32.7557 6.52695 32.5508 6.95256C32.3658 7.33694 32.0935 7.65555 31.7489 7.90681C31.38 8.17575 30.9608 8.34946 30.5342 8.50455C30.0734 8.67222 29.6024 8.81728 29.1115 8.85899C28.7411 8.89052 28.305 8.85453 27.9968 8.64101C27.6501 8.40074 27.2406 8.22543 26.8395 8.10027C26.5562 8.01254 26.2663 7.94901 25.9725 7.90968ZM39.7783 6.30355C39.7856 6.32632 39.8073 6.31916 39.8047 6.29623C39.7505 5.80915 39.7044 5.33163 39.6028 4.85729C39.8366 5.04581 40.066 5.23991 40.2832 5.44516C40.5974 5.74228 40.9088 6.09226 41.0867 6.48969C41.1333 6.59398 41.2223 6.47806 41.1932 6.40148C41.1085 6.17888 41.0216 5.95723 40.8998 5.75199C40.7684 5.5305 40.617 5.3208 40.4544 5.12129C40.3136 4.94852 40.1592 4.79009 39.999 4.63517C39.843 4.48422 39.6557 4.31798 39.5221 4.18789C39.485 4.15175 39.4358 4.12245 39.3841 4.09952C39.2204 3.64063 39.0096 3.20116 38.7516 2.78622C38.5978 2.79577 38.4408 2.81567 38.2779 2.85803C38.2773 2.85723 38.2766 2.85675 38.276 2.85612C38.3093 2.9093 38.3442 2.96153 38.376 3.0155C38.9731 4.02755 39.4263 5.18689 39.7783 6.30355ZM30.0258 3.77374C30.4438 4.17038 30.7619 4.65555 31.0006 5.17797C31.0208 5.22256 31.0517 5.16205 31.0506 5.13896C31.0133 4.44346 30.6653 3.83266 30.1689 3.35593C29.9688 3.16359 29.7406 3.00293 29.5026 2.85978C29.3895 2.98461 29.3061 3.10674 29.2661 3.21629C29.2645 3.21565 29.2629 3.21518 29.2615 3.21454C29.2623 3.21502 29.2633 3.21533 29.264 3.21581C29.5382 3.37058 29.7973 3.55688 30.0258 3.77374ZM34.4421 3.25944C34.5907 3.48522 34.7294 3.72502 34.8451 3.96928C34.9053 4.09634 34.9751 4.22022 35.0161 4.35493C35.062 4.50492 35.0934 4.65794 35.1445 4.80618C35.1636 4.86143 35.2086 4.82194 35.2109 4.78102C35.2185 4.6452 35.2012 4.5167 35.1747 4.38359C35.1438 4.22722 35.1249 4.06656 35.0817 3.91339C34.9835 3.56547 34.8364 3.25912 34.6354 2.96041C34.4689 2.71313 34.2749 2.48448 34.0616 2.27637C34.035 2.25042 34.0044 2.2286 33.9772 2.20312C33.8942 2.29548 33.8245 2.39308 33.7801 2.49722C33.7748 2.49308 33.7694 2.49021 33.7641 2.48607C33.8226 2.53719 33.8831 2.58607 33.9383 2.64068C34.1283 2.82746 34.2958 3.03716 34.4421 3.25944ZM43.5367 25.2379C43.3081 25.8974 43.114 26.5512 42.7106 27.1356C42.3317 27.6846 41.8359 28.1591 41.2583 28.4948C40.6568 28.8443 39.9332 29.0877 39.2306 29.0277C38.5362 28.9683 38.0507 28.5631 37.7851 27.9365C37.7692 27.8991 37.7459 27.8665 37.7178 27.8384C37.7791 27.6946 37.8396 27.5505 37.8865 27.401C38.1778 26.4758 38.1448 25.5865 37.9168 24.6579C37.9087 24.6247 37.8927 24.5961 37.8733 24.5698C38.0413 24.3233 38.1938 24.0651 38.3196 23.7987C38.6371 23.125 38.8585 22.3914 38.9487 21.6467C39.3387 21.8418 39.7675 21.955 40.2058 21.9499C40.4374 21.9472 40.6703 21.9244 40.8908 21.8484C41.115 21.7712 41.3007 21.6187 41.4687 21.4564C41.5125 21.4141 41.4848 21.2432 41.404 21.2676C40.6222 21.5021 39.7014 21.584 38.9889 21.1181C38.9921 21.0252 38.9954 20.9323 38.9943 20.8394C38.9889 20.438 38.9209 20.0302 38.7995 19.6385C38.9148 19.6349 39.0307 19.6162 39.143 19.5831C39.3723 19.5155 39.5914 19.3834 39.7947 19.2586C40.0256 19.1167 40.2329 18.9548 40.4214 18.7606C40.4977 18.6819 40.5681 18.5991 40.6308 18.5091C40.7268 18.3714 40.7816 18.2349 40.8342 18.0768C40.9131 17.8386 40.9849 17.5638 40.9598 17.3119C40.9537 17.2506 40.8549 17.1008 40.8104 17.2259C40.7364 17.4345 40.6781 17.6195 40.5399 17.7975C40.4576 17.9036 40.3566 17.9905 40.2644 18.088C40.1823 18.1748 40.0955 18.2553 40.0014 18.3289C39.8043 18.4829 39.5911 18.6126 39.3702 18.7293C39.2632 18.7859 39.1549 18.8394 39.0436 18.8868C38.9959 18.9072 38.9481 18.9269 38.8994 18.9446C38.8758 18.9531 38.8519 18.9604 38.8282 18.9687C38.8282 18.9687 38.8008 18.9773 38.7951 18.9784C38.7718 18.983 38.7481 18.986 38.7183 18.9919C38.712 18.9914 38.6994 18.9895 38.6882 18.9878C38.647 18.9741 38.58 18.9527 38.5698 18.9508C38.5527 18.9476 38.5363 18.9505 38.5199 18.9491C38.0163 17.9746 37.1302 17.2291 35.9524 17.1832C35.9346 17.1826 35.9225 17.1882 35.9061 17.1891C35.8882 17.1105 35.8696 17.0318 35.8443 16.9536C35.6271 16.2809 35.1811 15.4203 34.4471 15.2074C34.4117 15.1972 34.4073 15.2776 34.4256 15.2939C34.7262 15.5629 35.0282 15.8276 35.2125 16.1941C35.3789 16.5252 35.4422 16.8678 35.4648 17.2344C35.5078 17.928 35.3013 18.6142 34.9364 19.2003C34.5706 19.7882 34.0786 20.281 33.5135 20.6781C32.8317 21.1572 32.1298 21.3698 31.3135 21.462C31.2907 21.4029 31.2748 21.341 31.2467 21.2845C30.9913 20.7683 30.57 20.3638 30.0689 20.086C29.8231 19.9495 29.5604 19.8489 29.2841 19.7947C28.9848 19.7361 28.734 19.7729 28.4456 19.8616C28.3474 19.8917 28.3848 20.0931 28.4877 20.0853C29.4747 20.0108 30.4164 20.5391 30.7294 21.4961C30.8643 21.9085 30.8802 22.336 30.7858 22.7595C30.7371 22.9783 30.6559 23.1834 30.5641 23.3872C30.4597 23.6195 30.3915 23.8679 30.2629 24.0891C30.2075 24.1842 30.3341 24.4412 30.4597 24.3627C30.725 24.1964 30.9845 23.9923 31.1463 23.7183C31.2835 23.4858 31.3705 23.2143 31.4246 22.9508C31.4923 22.6209 31.4961 22.2691 31.4407 21.9298C32.3026 22.089 33.2107 21.6478 33.9058 21.1783C34.6104 20.7023 35.2488 20.0635 35.6187 19.2901C35.8424 18.8225 35.9742 18.3224 35.976 17.8176C37.6109 17.9453 38.3061 19.6182 38.3067 21.0822C38.3066 21.1186 38.3083 21.1552 38.3074 21.1912C38.2647 22.8495 37.7334 24.5411 36.506 25.7033C36.4806 25.7274 36.4817 25.8427 36.5334 25.8156C36.7224 25.7164 36.8766 25.6723 37.0455 25.5274C37.2246 25.3737 37.3875 25.2031 37.5377 25.0211C37.5512 25.0048 37.5635 24.9873 37.5767 24.9707C37.7332 26.4106 37.2205 28.0419 36.1409 28.9989C34.9338 30.0689 33.2607 30.1665 31.8071 29.5809C31.7061 29.5403 31.7411 29.7436 31.7833 29.7796C32.1486 30.0907 32.5126 30.2743 32.9697 30.3773C32.8925 30.4405 32.8116 30.4996 32.7276 30.5534C32.4013 30.7618 32.026 30.8824 31.6451 30.9418C30.8243 31.0698 29.9618 30.8419 29.2398 30.4523C29.1789 30.4195 29.165 30.5663 29.2075 30.5959C29.828 31.0278 30.5473 31.3617 31.3031 31.4368C31.3033 31.4438 31.3042 31.4507 31.3044 31.4577C31.3049 31.5835 31.2955 31.7088 31.2768 31.8331C31.2596 31.9482 31.2348 32.0621 31.202 32.1737C31.1858 32.2294 31.1675 32.2847 31.1472 32.3393C31.1074 32.4466 31.078 32.5575 31.0361 32.664C31.0203 32.7038 31.0633 32.8356 31.117 32.7729C31.2136 32.6602 31.2894 32.5493 31.3501 32.4134C31.4057 32.2887 31.4515 32.1595 31.487 32.0279C31.5248 31.8877 31.5493 31.7436 31.5622 31.5991C31.5665 31.5515 31.5703 31.5026 31.5732 31.4534C31.709 31.4553 31.8454 31.4502 31.9827 31.4335C32.4056 31.3817 32.8217 31.239 33.1858 31.0177C33.3718 30.9047 33.6898 30.7066 33.8321 30.4762C34.0009 30.4771 34.1697 30.4701 34.337 30.4472C34.9749 30.3598 35.5978 30.1356 36.1371 29.7824C36.2201 30.017 36.3444 30.2496 36.4165 30.4636C36.5323 30.8069 36.6471 31.1467 36.7138 31.5037C36.8643 32.3084 36.8985 33.1899 36.5269 33.9403C36.5218 33.9504 36.5291 33.9733 36.5382 33.9571C36.9458 33.2318 37.3057 32.4958 37.2791 31.6427C37.2654 31.2042 37.173 30.7528 37.0297 30.3393C36.9203 30.0235 36.8006 29.6934 36.5934 29.431C36.8737 29.1815 37.1128 28.8939 37.3186 28.5841C37.6407 29.1565 38.3061 29.532 38.939 29.6436C39.7914 29.7939 40.6937 29.5847 41.4427 29.1656C42.768 28.4237 43.8668 26.8372 43.652 25.2737C43.6424 25.2032 43.5681 25.1475 43.5367 25.2379ZM12.5143 25.572C12.7186 25.2097 13.0114 24.875 13.3486 24.6308C13.682 24.3894 14.0691 24.22 14.4726 24.1391C14.9724 24.0389 15.4754 24.1225 15.9791 24.112C16.0257 24.1111 16.031 24.0221 16.001 23.9987C15.424 23.5461 14.6164 23.5036 13.8839 23.6987C13.8889 23.6668 13.894 23.6358 13.8989 23.6035C13.9373 23.3514 13.9655 23.0974 13.9709 22.8423C13.98 22.4128 13.9177 21.9484 13.726 21.5596C13.5207 21.1429 13.2082 20.8216 12.8034 20.5921C12.5332 20.4388 12.1106 20.2251 11.8001 20.3807C11.7583 20.4016 11.7522 20.505 11.8032 20.5199C11.9551 20.5641 12.1146 20.5652 12.2665 20.6117C12.441 20.6652 12.6216 20.7519 12.7571 20.8754C13.0166 21.1122 13.1375 21.5251 13.2203 21.8591C13.3087 22.215 13.3174 22.5947 13.2954 22.9589C13.2841 23.149 13.2618 23.3383 13.2351 23.5269C13.2219 23.62 13.2055 23.7125 13.1959 23.8062C13.1897 23.8679 13.1896 23.9173 13.1929 23.9644C13.0499 24.0381 12.9144 24.1198 12.792 24.2096C12.3944 24.5009 12.0761 24.87 11.8446 25.3051C11.7243 25.5311 11.5634 25.8623 11.535 26.1672C10.9199 26.0529 10.3184 26.1196 9.76441 26.4441C9.74069 26.4581 9.73639 26.5417 9.77413 26.538C10.1389 26.5019 10.5074 26.496 10.8726 26.5304C11.4742 26.5871 12.0651 26.7391 12.573 27.0745C12.7157 27.1686 12.8493 27.2743 12.9918 27.3685C13.1337 27.4625 13.2626 27.5857 13.4157 27.6595C13.5036 27.7018 13.5399 27.5835 13.5305 27.5222C13.4975 27.3033 13.3126 27.0721 13.1507 26.9262C13.0232 26.8114 12.8762 26.7181 12.7299 26.6293C12.5614 26.5269 12.3848 26.438 12.2025 26.3633C12.2259 26.2764 12.2461 26.1893 12.2713 26.1153C12.3351 25.9274 12.4167 25.7452 12.5143 25.572ZM45.5436 24.3349C45.3182 23.731 44.9871 23.2286 44.6126 22.71C44.5534 22.6283 44.5026 22.7734 44.5346 22.8272C45.0949 23.7676 45.3521 24.9876 45.3731 26.0729C45.383 26.584 45.3172 27.0772 45.2288 27.5668C45.239 27.5209 45.2444 27.494 45.2444 27.494C45.4881 27.4464 45.7067 27.3663 45.904 27.2617C45.9481 26.8703 45.9598 26.4758 45.9278 26.082C45.8794 25.4825 45.7541 24.8985 45.5436 24.3349ZM49.0901 17.0793C48.8903 16.9489 48.674 16.8457 48.4479 16.7696C48.3414 16.7337 48.2279 16.6933 48.1156 16.6847C47.9916 16.6753 47.8709 16.6716 47.747 16.6578C47.704 16.653 47.6999 16.7478 47.7405 16.7575C47.8776 16.7904 47.9886 16.8433 48.1137 16.9067C48.2135 16.9573 48.3191 16.9973 48.4199 17.0468C48.6384 17.1539 48.8449 17.2899 49.0398 17.4351C49.1436 17.5125 49.2414 17.5988 49.3355 17.689C49.4189 17.6168 49.4936 17.5383 49.5601 17.4546C49.4143 17.3165 49.2576 17.1887 49.0901 17.0793ZM34.4412 32.863C34.3762 32.9262 34.2781 32.9485 34.2038 32.9998C34.1307 33.0501 34.0546 33.1071 33.988 33.1655C33.8503 33.2864 33.7297 33.4244 33.5882 33.5418C33.3248 33.7603 33.0156 33.9411 32.7034 34.0805C32.1204 34.3405 31.4531 34.4631 30.8316 34.2658C30.5949 34.1907 30.3681 34.0518 30.2046 33.8636C30.0522 33.6884 29.9395 33.483 29.7916 33.3044C29.5327 32.9915 29.2241 32.7181 28.8688 32.5194C28.1101 32.0952 27.2987 32.0716 26.4839 32.2025C26.6561 31.8081 26.7804 31.3921 26.8514 30.9658C26.9954 30.1025 26.9724 29.0893 26.6314 28.2602C26.9845 27.9518 27.2742 27.5859 27.489 27.1788C27.8667 27.7005 28.5958 28.0193 29.1658 28.1465C30.0408 28.3419 31.0544 28.3437 31.8784 27.958C32.7678 27.5416 33.4446 26.599 33.8554 25.732C34.0023 25.4215 34.1175 25.0911 34.1847 24.7555C34.227 24.7607 34.2695 24.7628 34.3135 24.7544C34.4061 24.7364 34.4991 24.6924 34.584 24.652C34.763 24.5669 34.923 24.4477 35.0688 24.3144C35.3618 24.0466 35.601 23.7265 35.8091 23.3899C36.2521 22.6732 36.5199 21.8096 36.2645 20.9776C36.2572 20.9538 36.2357 20.9862 36.2388 21.0004C36.4119 21.7832 35.9438 22.5258 35.5199 23.1469C35.3316 23.4229 35.1243 23.6945 34.8754 23.9189C34.759 24.0238 34.6332 24.119 34.4983 24.199C34.4163 24.2475 34.3311 24.2904 34.2431 24.3271C34.2722 23.8563 34.1875 23.3863 33.9312 22.9552C33.8883 22.8834 33.8047 22.9196 33.8094 22.9995C33.8586 23.8706 33.7288 24.6792 33.3079 25.4524C32.951 26.1081 32.4551 26.8014 31.8212 27.2141C31.2103 27.612 30.4054 27.6607 29.6978 27.577C28.9246 27.4854 28.3022 27.1397 27.7159 26.6681C28.0092 25.8573 28.0503 24.9485 27.8171 24.0944C27.6793 23.5894 27.427 23.1142 27.0946 22.7097C26.9377 22.519 26.7252 22.3022 26.4846 22.1526C26.6471 21.8953 26.7924 21.6266 26.9134 21.345C27.285 20.4799 27.5933 19.121 27.1153 18.2013C27.8762 18.2526 28.7114 17.9595 29.3599 17.605C29.6135 17.4664 29.8643 17.3133 30.0804 17.1286C30.1083 17.1221 30.1333 17.1189 30.1638 17.1108C30.3221 17.0691 30.4861 17.0608 30.6492 17.0613C30.9479 17.0621 31.2467 17.0973 31.5396 17.1544C31.8177 17.2087 32.09 17.2907 32.3521 17.3985C32.575 17.4901 32.8245 17.67 33.0721 17.6294C33.0769 17.6286 33.0793 17.6202 33.0775 17.6163C32.9491 17.3355 32.6613 17.1774 32.3968 17.0412C32.0948 16.8856 31.7722 16.7646 31.444 16.6774C31.1584 16.6014 30.8624 16.5607 30.5673 16.5459C30.5594 16.5454 30.5508 16.5455 30.5428 16.5452C30.5844 16.4573 30.621 16.3655 30.6457 16.2648C30.8254 15.533 30.549 14.8211 30.282 14.1509C30.217 13.9879 30.0107 14.0125 30.0479 14.2039C30.1541 14.7475 30.2721 15.3376 30.1138 15.882C29.9541 16.4319 29.5093 16.7385 29.0351 17.0067C28.5638 17.2732 28.0759 17.5092 27.5382 17.6034C26.9373 17.7087 26.2738 17.6148 25.7276 17.3366C25.6741 17.3094 25.6669 17.4218 25.6862 17.4479C25.9491 17.803 26.2809 18.0123 26.6454 18.1195C26.6393 18.2208 26.6449 18.3246 26.6446 18.4257C26.644 18.6897 26.6527 18.9535 26.6414 19.2175C26.6213 19.6831 26.5354 20.1466 26.393 20.5899C26.1115 21.4665 25.5994 22.2363 24.9491 22.8833C24.3106 23.5187 23.54 24.0133 22.7305 24.4009C22.2776 24.6176 21.7942 24.8182 21.2812 24.7784C20.707 24.7338 20.2185 24.3021 20.058 23.7619C20.0472 23.7261 20.0118 23.7264 19.9975 23.7592C19.8577 24.0797 20.0128 24.3529 20.107 24.6552C20.1946 24.9359 20.1 25.3139 19.9833 25.5803C19.859 25.8642 19.6418 26.1145 19.3579 26.239C19.1348 26.3368 18.8854 26.353 18.6418 26.3575C18.1923 26.3657 17.6435 26.2842 17.3586 25.8967C17.2685 25.7739 17.1815 25.9322 17.2298 26.0294C17.3804 26.3339 17.6167 26.5382 17.8923 26.66C17.8218 26.9417 17.7734 27.2292 17.6978 27.5106C17.5944 27.8945 17.4589 28.2682 17.2916 28.6288C17.0015 29.2544 16.6228 29.8305 16.1228 30.3085C14.9904 31.391 13.2908 31.7739 11.888 30.9986C11.8258 30.9642 11.8226 31.1072 11.8555 31.1367C12.5112 31.7255 13.3524 31.9492 14.1876 31.8895C14.1417 31.9702 14.0943 32.0502 14.0403 32.1256C13.85 32.3911 13.6161 32.607 13.3443 32.7877C12.8443 33.12 12.2834 33.3522 11.6906 33.4509C10.501 33.649 9.26046 33.2638 8.33519 32.4833C8.33837 32.4864 8.34092 32.4896 8.3441 32.493C8.32707 32.5942 8.32006 32.6879 8.3078 32.7855C9.22463 33.6603 10.4274 34.1956 11.7189 34.0497C12.4191 33.9708 13.1214 33.7247 13.701 33.3217C13.9795 33.1283 14.2269 32.8961 14.4282 32.6224C14.6054 32.3813 14.8051 32.0834 14.8716 31.7777C15.3791 31.6465 15.8641 31.4148 16.2798 31.0972C16.7855 30.7106 17.2123 30.2227 17.5465 29.6797C17.5129 29.749 17.4768 29.8157 17.4358 29.8794C17.529 30.06 17.6371 30.2275 17.7393 30.3619C17.8742 30.5392 18.0299 30.6929 18.1944 30.8356C18.046 31.8049 17.6444 32.7711 16.9024 33.4345C16.117 34.1367 15.0153 34.4714 13.9917 34.1518C13.8088 34.0946 13.8535 34.4271 13.9792 34.4788C14.9742 34.8897 16.1373 34.7093 17.0204 34.1129C17.0236 35.431 17.7234 36.7123 18.7956 37.4865C19.5246 38.0129 20.3913 38.306 21.285 38.3718C21.6761 38.4006 22.0697 38.3917 22.456 38.3201C22.6617 38.2818 22.8669 38.2379 23.0593 38.1545C23.244 38.0742 23.3497 37.9577 23.5153 37.8561C23.5438 37.8386 23.5615 37.7331 23.5092 37.7413C23.3255 37.7702 23.1152 37.7537 22.9268 37.7765C22.7454 37.7984 22.5647 37.826 22.3829 37.8443C22.0026 37.8827 21.6116 37.8911 21.2312 37.8491C20.5188 37.7704 19.811 37.5253 19.2341 37.0943C18.1683 36.298 17.5744 34.9401 17.7339 33.6184C17.7393 33.574 17.7325 33.5319 17.718 33.4926C18.2691 32.864 18.6183 32.0691 18.7724 31.2478C18.8846 31.3118 18.999 31.3726 19.1178 31.4268C19.6873 31.6862 20.315 31.8186 20.936 31.8737C21.2801 31.9043 21.6285 31.9076 21.9727 31.8791C22.3015 31.8518 22.5663 31.775 22.8692 31.6484C22.9566 31.612 22.9402 31.4027 22.8351 31.4045C21.6726 31.4238 20.494 31.4769 19.4013 31.0042C18.9759 30.8201 18.5689 30.5447 18.2797 30.1784C18.1417 30.0036 18.0275 29.8135 17.946 29.606C17.8892 29.4611 17.8646 29.3091 17.8309 29.1603C18.0197 28.7627 18.163 28.3432 18.2778 27.9188C18.3466 27.6645 18.4157 27.4082 18.4535 27.1472C18.485 26.9289 18.4804 26.8391 18.7386 26.849C19.1625 26.8649 19.5935 26.7476 19.9395 26.5019C20.1637 26.3428 20.35 26.1296 20.476 25.8852C20.5078 25.8234 20.7627 25.1978 20.6909 25.1607C20.9501 25.2946 21.2415 25.3707 21.5251 25.382C22.7193 25.4293 23.9366 24.647 24.8428 23.9383C25.3795 23.5184 25.8649 23.0298 26.2637 22.479C26.9806 22.9712 27.2796 24.1711 27.3129 24.9507C27.3524 25.8814 27.0452 26.8455 26.4237 27.5464C25.2139 28.9111 23.1844 29.01 21.6313 28.2203C21.514 28.1605 21.5157 28.3765 21.5762 28.429C22.8126 29.5022 24.7283 29.4606 26.0941 28.653C26.2091 29.2191 26.3031 29.7711 26.2508 30.3724C26.1851 31.1285 25.9601 31.8616 25.5591 32.5082C24.5111 34.1989 22.3529 34.8911 20.4874 34.1364C20.4229 34.1102 20.4151 34.2465 20.4549 34.2744C21.3356 34.8941 22.452 35.0072 23.4858 34.7518C23.5053 34.8581 23.5293 34.9626 23.551 35.0524C23.6089 35.2935 23.6975 35.527 23.8051 35.7501C24.0361 36.2292 24.3981 36.6472 24.8259 36.9612C25.6053 37.5331 26.9091 37.9397 27.7707 37.3163C27.7988 37.2959 27.8009 37.2083 27.7555 37.2071C27.2657 37.1932 26.774 37.2492 26.2894 37.1521C25.8442 37.063 25.4152 36.8942 25.0611 36.6045C24.7237 36.3286 24.4665 35.9694 24.2812 35.5764C24.1919 35.3868 24.1274 35.1841 24.0826 34.9793C24.0544 34.8505 24.0513 34.7102 24.0329 34.5758C24.6315 34.3448 25.1803 33.9919 25.6075 33.5413C25.8528 33.2827 26.0628 32.9961 26.2394 32.6906C27.0482 32.6549 27.9453 32.6492 28.62 33.1125C29.2574 33.5502 29.6608 34.2572 29.9123 34.9723C30.1744 35.7178 30.2272 36.4654 30.1836 37.2493C30.1608 37.6561 30.0782 38.0527 30.0003 38.4513C30.0462 38.3842 30.089 38.3178 30.1251 38.2533C30.246 38.3392 30.3664 38.4079 30.4861 38.4662C30.9663 37.3911 31.0383 36.145 30.688 35.001C30.7606 35.0191 30.8334 35.0365 30.907 35.0505C31.6236 35.1874 32.3975 35.071 33.0446 34.7352C33.4113 34.5449 33.688 34.2871 33.9695 33.9924C34.0872 33.8692 34.1925 33.7357 34.291 33.5969C34.363 33.4956 34.4116 33.3835 34.4455 33.2641C34.4737 33.1649 34.4665 33.0563 34.5057 32.96C34.5201 32.9264 34.4929 32.8127 34.4412 32.863ZM46.9385 19.499C46.4441 19.0733 45.6935 18.7553 45.0265 18.8986C45.1155 18.0044 45.0443 17.0598 44.5389 16.3635C44.9524 16.2855 45.3639 16.146 45.7073 15.8973C45.8692 15.78 46.096 15.5491 46.1869 15.3744C46.1869 15.3744 46.431 15.3883 46.6318 15.3545C47.6485 15.1832 48.4533 14.1957 48.5143 13.1411C48.3839 13.0645 48.2502 12.9992 48.1104 12.961C48.0744 13.3276 47.93 13.8242 47.6384 14.174C47.4469 14.4039 47.1047 14.7789 46.3308 14.9522C46.3963 14.5526 46.2805 14.1355 45.9828 13.8501C45.932 13.8014 45.9175 13.9017 45.9352 13.9305C46.4292 14.7362 45.3578 15.3972 44.5453 15.6271C43.7039 15.8652 42.7567 15.7777 41.9419 15.5825C40.1751 15.1593 38.7518 14.4041 37.3485 13.4191C37.2488 13.349 37.231 13.5279 37.2885 13.5766C38.9022 14.9499 40.7353 16.3003 43.0944 16.4387C43.338 16.453 43.5969 16.4575 43.859 16.4446C44.2365 16.8635 44.3642 17.4111 44.4059 17.9635C44.4515 18.5673 44.4258 19.2 44.3219 19.7966C44.2149 20.4108 44.0074 21.0205 43.6273 21.5214C43.4531 21.7512 43.255 21.9728 43.0086 22.1269C42.8092 22.2518 42.4728 22.3629 42.3548 22.5756C42.3486 22.5868 42.3462 22.6091 42.3586 22.6175C42.5446 22.7433 42.8262 22.6403 43.0374 22.544C42.9864 23.2234 42.6286 23.848 42.1597 24.3477C41.894 24.6308 41.5871 24.872 41.2649 25.0875C41.0946 25.2013 40.916 25.3005 40.7439 25.411C40.5724 25.5212 40.3487 25.6185 40.1417 25.6285C40.1151 25.6298 40.1017 25.6869 40.1272 25.6983C40.6283 25.9191 41.1023 25.7134 41.5461 25.4569C41.9534 25.2215 42.3475 24.9384 42.6702 24.5943C43.2627 23.9628 43.613 23.1143 43.5434 22.2487C43.6705 22.1532 43.7888 22.0459 43.898 21.9289C44.3876 21.4044 44.6749 20.7514 44.8322 20.0568C44.8648 19.9127 44.896 19.7619 44.9247 19.6072C44.9919 19.6131 45.06 19.6104 45.1244 19.5893C45.5858 19.4384 46.0711 19.4576 46.512 19.6674C46.7456 19.7785 46.9646 19.9095 47.1719 20.0648C47.3972 20.2334 47.6349 20.4074 47.6797 20.7066C47.6878 20.7606 47.743 20.749 47.7421 20.6974C47.734 20.2055 47.2829 19.7958 46.9385 19.499ZM17.738 39.0191C17.4029 39.3332 16.9933 39.5509 16.586 39.758C16.5856 39.7584 16.5849 39.7585 16.5844 39.7588C16.6649 39.8528 16.7496 39.9391 16.8379 40.0184C17.1994 39.8052 17.4384 39.5705 17.6697 39.2001C17.788 39.0106 17.7922 38.9683 17.738 39.0191ZM9.39039 23.1852C9.61124 23.528 9.84928 23.8721 10.1999 24.0923C10.2292 24.1106 10.2399 24.0466 10.2303 24.0303C9.85422 23.3826 9.43831 22.7764 9.22256 22.0496C9.15409 21.819 9.10139 21.5833 9.05872 21.3459C8.94774 21.4494 8.84886 21.5569 8.75396 21.6657C8.79424 21.8281 8.83819 21.9895 8.89503 22.1488C9.02337 22.5078 9.18371 22.8642 9.39039 23.1852ZM15.7426 35.9603C15.0157 36.7308 14.1202 37.3055 13.0791 37.5448C12.5764 37.6602 12.0579 37.6994 11.5423 37.686C11.5509 37.6882 11.5599 37.6913 11.5683 37.6935C11.5939 37.8713 11.6384 38.0347 11.6927 38.19C12.2189 38.1962 12.7442 38.1447 13.2547 38.0096C14.3166 37.7285 15.3258 37.0908 15.8085 36.0797C15.8264 36.0425 15.8026 35.8968 15.7426 35.9603Z" fill="white"/>
</svg>
