<svg width="365" height="312" viewBox="0 0 365 312" fill="none" xmlns="http://www.w3.org/2000/svg">

<path opacity="0.7" d="M288.033 260.869C301.754 260.869 357.186 237.014 336.236 192.54C317.99 153.808 289.538 167.19 301.546 108.928C308.323 76.0462 274.171 39.7662 237.058 61.3402C216.102 73.5222 174.794 88.4702 154.34 58.1642C122.103 10.3992 53.1208 9.65522 30.9278 62.9002C7.16081 119.92 68.6278 134.038 45.7728 161.386C37.3388 171.479 27.0268 176.243 20.0768 212.064C15.1718 237.342 42.9978 257.705 67.8998 258.459L288.033 260.869Z" fill="url(#paint0_linear_360_5)"/>
<path opacity="0.2" d="M9.92693 112.597C9.92693 115.311 7.72592 117.512 5.01192 117.512C2.29692 117.512 0.0969238 115.311 0.0969238 112.597C0.0969238 109.882 2.29692 107.682 5.01192 107.682C7.72692 107.682 9.92693 109.882 9.92693 112.597Z" fill="#CCF2FF"/>
<path d="M349.534 162.869C349.534 164.36 348.325 165.569 346.834 165.569C345.343 165.569 344.134 164.36 344.134 162.869C344.134 161.378 345.343 160.169 346.834 160.169C348.326 160.169 349.534 161.378 349.534 162.869Z" fill="#CCF2FF"/>
<path d="M235.243 23.0881H232.339V20.1861C232.339 19.5531 231.824 19.0381 231.19 19.0381C230.556 19.0381 230.042 19.5521 230.042 20.1861V23.0881H227.14C226.506 23.0881 225.991 23.6031 225.991 24.2361C225.991 24.8701 226.506 25.3851 227.14 25.3851H230.042V28.2881C230.042 28.9221 230.557 29.4361 231.19 29.4361C231.824 29.4361 232.339 28.9211 232.339 28.2881V25.3851H235.243C235.877 25.3851 236.392 24.8701 236.392 24.2361C236.391 23.6031 235.877 23.0881 235.243 23.0881Z" fill="#B1E5F2"/>
<path d="M129.602 48.81H125.197V44.407C125.197 43.446 124.416 42.666 123.454 42.666C122.493 42.666 121.712 43.446 121.712 44.407V48.81H117.31C116.349 48.81 115.567 49.591 115.567 50.552C115.567 51.514 116.348 52.295 117.31 52.295H121.712V56.699C121.712 57.66 122.493 58.441 123.454 58.441C124.416 58.441 125.197 57.66 125.197 56.699V52.295H129.602C130.564 52.295 131.344 51.514 131.344 50.552C131.344 49.59 130.564 48.81 129.602 48.81Z" fill="#B1E5F2"/>
<path d="M8.99103 186.707C8.99103 188.436 7.58903 189.838 5.86003 189.838C4.13103 189.838 2.72803 188.436 2.72803 186.707C2.72803 184.978 4.13003 183.576 5.86003 183.576C7.59003 183.576 8.99103 184.978 8.99103 186.707Z" fill="#CCF2FF"/>
<path opacity="0.2" d="M334.849 61.7358C334.849 64.4498 332.649 66.6508 329.934 66.6508C327.219 66.6508 325.019 64.4508 325.019 61.7358C325.019 59.0208 327.22 56.8208 329.934 56.8208C332.649 56.8208 334.849 59.0208 334.849 61.7358Z" fill="#CCF2FF"/>
<path opacity="0.2" d="M162.876 8.64903H157.018V2.79403C157.018 1.51603 155.979 0.478027 154.7 0.478027C153.422 0.478027 152.384 1.51603 152.384 2.79403V8.64903H146.53C145.252 8.64903 144.213 9.68703 144.213 10.965C144.213 12.244 145.252 13.282 146.53 13.282H152.384V19.138C152.384 20.417 153.422 21.455 154.7 21.455C155.979 21.455 157.018 20.417 157.018 19.138V13.282H162.876C164.156 13.282 165.193 12.244 165.193 10.965C165.193 9.68803 164.155 8.64903 162.876 8.64903Z" fill="#CCF2FF"/>
<path opacity="0.3" d="M310.218 301.516C310.218 304.385 296.433 306.711 279.428 306.711C262.423 306.711 248.638 304.385 248.638 301.516C248.638 298.647 262.423 296.321 279.428 296.321C296.433 296.322 310.218 298.647 310.218 301.516Z" fill="url(#paint1_linear_360_5)"/>
<path opacity="0.3" d="M77.3078 311.522C105.732 311.522 128.775 308.04 128.775 303.744C128.775 299.449 105.732 295.966 77.3078 295.966C48.8834 295.966 25.8408 299.449 25.8408 303.744C25.8408 308.04 48.8834 311.522 77.3078 311.522Z" fill="url(#paint2_linear_360_5)"/>
<path opacity="0.3" d="M178.686 288.035C257.122 288.035 320.708 280.498 320.708 271.201C320.708 261.904 257.122 254.367 178.686 254.367C100.249 254.367 36.6638 261.904 36.6638 271.201C36.6638 280.498 100.249 288.035 178.686 288.035Z" fill="url(#paint3_linear_360_5)"/>
<path d="M56.1229 134.814L57.5909 131.668C58.3239 130.098 59.9899 129.14 61.7049 129.391C63.9789 129.723 66.2609 129.801 68.5119 129.64C70.2689 129.514 71.8839 130.608 72.4869 132.263L73.7849 135.832C74.5399 137.907 76.8339 138.978 78.9089 138.223L83.3709 136.601C85.4459 135.846 86.5169 133.552 85.7619 131.476L84.3879 127.699C83.7889 126.053 84.2789 124.177 85.6679 123.11C87.5619 121.654 89.3059 119.974 90.8519 118.085C91.9889 116.696 93.9519 116.304 95.5789 117.063L98.3579 118.36C100.359 119.294 102.739 118.428 103.672 116.427L105.679 112.125C106.613 110.124 105.748 107.745 103.746 106.811L100.166 105.141C98.6019 104.411 97.7209 102.764 97.8869 101.046C98.0759 99.0891 98.0799 97.1331 97.9079 95.2021C97.7559 93.5011 98.6289 91.8761 100.173 91.1461L104.973 88.8781C106.97 87.9341 107.824 85.5511 106.88 83.5541L104.851 79.2621C103.908 77.2651 101.524 76.4121 99.5269 77.3551L95.7929 79.1191C94.1369 79.9011 92.1499 79.4691 91.0019 78.0421C89.9229 76.7001 88.7279 75.4381 87.4229 74.2731C86.1289 73.1191 85.7899 71.2271 86.5229 69.6561L87.9909 66.5091C88.9249 64.5081 88.0589 62.1291 86.0579 61.1951L81.7559 59.1881C79.7549 58.2541 77.3759 59.1201 76.4419 61.1211L74.9839 64.2471C74.2469 65.8271 72.5709 66.7931 70.8449 66.5441C69.5429 66.3561 68.2389 66.2511 66.9399 66.2261C65.0839 66.1911 63.5129 64.8471 63.1449 63.0281L62.5879 60.2761C62.1499 58.1111 60.0399 56.7121 57.8759 57.1501L53.2229 58.0921C51.0589 58.5301 49.6589 60.6401 50.0969 62.8041L50.9569 67.0541C51.2909 68.7021 50.5389 70.3521 49.1229 71.2581C47.1429 72.5271 45.2939 74.0201 43.6199 75.7251C42.4119 76.9551 40.5849 77.3401 39.0229 76.6111L35.4389 74.9391C33.4379 74.0051 31.0579 74.8701 30.1249 76.8721L28.1179 81.1741C27.1839 83.1751 28.0499 85.5551 30.0509 86.4881L32.8299 87.7851C34.4569 88.5441 35.4169 90.3021 35.0829 92.0661C34.6309 94.4521 34.4629 96.8541 34.5609 99.2281C34.6329 100.972 33.5129 102.546 31.8729 103.143L28.0309 104.54C25.9559 105.295 24.8849 107.589 25.6399 109.665L27.2619 114.127C28.0169 116.202 30.3109 117.273 32.3869 116.518L35.9879 115.208C37.6449 114.605 39.5229 115.142 40.5539 116.572C41.8819 118.414 43.4159 120.125 45.1429 121.664C46.4369 122.818 46.7719 124.71 46.0389 126.281L44.5719 129.425C43.6379 131.426 44.5029 133.805 46.5049 134.739L50.8069 136.746C52.8099 137.68 55.1889 136.815 56.1229 134.814ZM47.1779 89.0521C52.1009 78.5001 64.6469 73.9381 75.1989 78.8611C85.7509 83.7851 90.3129 96.3301 85.3899 106.881C80.4669 117.433 67.9209 121.995 57.3689 117.072C46.8169 112.149 42.2539 99.6041 47.1779 89.0521Z" fill="url(#paint4_linear_360_5)"/>
<path d="M295.602 77.313L294.879 75.332C294.518 74.343 294.821 73.216 295.665 72.585C296.784 71.749 297.796 70.801 298.693 69.764C299.393 68.954 300.556 68.729 301.527 69.18L303.619 70.153C304.836 70.719 306.28 70.191 306.846 68.975L308.063 66.36C308.629 65.143 308.101 63.699 306.885 63.133L304.671 62.103C303.706 61.654 303.11 60.639 303.246 59.583C303.433 58.144 303.458 56.673 303.309 55.197C303.199 54.112 303.873 53.099 304.898 52.726L306.648 52.087C307.908 51.627 308.557 50.232 308.097 48.972L307.108 46.262C306.648 45.002 305.253 44.353 303.993 44.813L301.738 45.636C300.753 45.996 299.667 45.668 298.999 44.859C298.239 43.938 297.399 43.097 296.495 42.342C295.698 41.678 295.374 40.605 295.723 39.627L296.807 36.589C297.258 35.325 296.599 33.935 295.336 33.484L292.619 32.515C291.355 32.064 289.966 32.723 289.515 33.987L288.672 36.35C288.298 37.398 287.259 38.067 286.153 37.948C285.112 37.836 284.057 37.809 282.996 37.87C281.944 37.931 280.985 37.265 280.624 36.276L279.901 34.294C279.441 33.034 278.046 32.385 276.786 32.845L274.076 33.834C272.816 34.294 272.167 35.689 272.627 36.949L273.346 38.917C273.709 39.912 273.406 41.047 272.558 41.683C271.918 42.162 271.314 42.678 270.745 43.226C269.934 44.009 268.682 44.108 267.741 43.486L266.319 42.545C265.2 41.805 263.693 42.111 262.952 43.23L261.36 45.635C260.62 46.754 260.926 48.261 262.045 49.002L264.242 50.456C265.094 51.02 265.481 52.051 265.263 53.049C264.959 54.445 264.808 55.881 264.823 57.333C264.834 58.381 264.216 59.331 263.231 59.69L260.974 60.514C259.714 60.974 259.065 62.369 259.525 63.629L260.514 66.339C260.974 67.599 262.369 68.248 263.629 67.788L265.379 67.149C266.404 66.775 267.571 67.116 268.187 68.017C269.019 69.235 269.981 70.338 271.044 71.315C271.825 72.032 272.022 73.189 271.574 74.151L270.527 76.403C269.961 77.619 270.488 79.064 271.705 79.63L274.32 80.847C275.537 81.413 276.981 80.885 277.547 79.669L278.529 77.558C278.981 76.587 280.018 76.009 281.075 76.179C282.437 76.398 283.831 76.472 285.234 76.391C286.285 76.33 287.243 76.998 287.604 77.987L288.327 79.967C288.787 81.227 290.182 81.876 291.442 81.416L294.152 80.427C295.414 79.968 296.062 78.573 295.602 77.313ZM272.082 61.524C269.656 54.879 273.077 47.525 279.722 45.099C286.367 42.673 293.721 46.094 296.147 52.739C298.573 59.384 295.152 66.738 288.507 69.164C281.861 71.59 274.507 68.169 272.082 61.524Z" fill="url(#paint5_linear_360_5)"/>
<path d="M288.697 186.21L322.988 126.069C317.383 119.915 316.277 112.066 321.043 103.707C325.295 96.2502 333.27 92.2552 341.296 92.7132C342.829 92.8012 343.703 94.5272 342.942 95.8612L333.922 111.68C333.254 112.852 333.662 114.344 334.834 115.012L342.157 119.187C343.396 119.894 344.974 119.462 345.681 118.223L354.592 102.594C355.371 101.227 357.352 101.098 358.225 102.407C363.118 109.753 363.354 119.767 357.584 127.594C353.096 133.68 346.914 137.002 338.748 135.172L304.457 195.313C310.062 201.467 311.168 209.316 306.402 217.675C302.15 225.132 294.175 229.127 286.149 228.669C284.616 228.581 283.742 226.855 284.503 225.521L293.523 209.701C294.191 208.529 293.783 207.037 292.611 206.369L285.288 202.194C284.049 201.487 282.471 201.919 281.764 203.159L272.853 218.788C272.073 220.155 270.093 220.284 269.22 218.975C264.327 211.63 264.091 201.615 269.861 193.788C274.349 187.701 280.531 184.379 288.697 186.21Z" fill="url(#paint6_linear_360_5)"/>
<path d="M142.352 215.686C142.352 215.686 73.9649 219.715 57.3069 171.702C45.7799 138.48 29.3939 130.838 19.2659 133.542C3.57193 137.732 -0.979065 190.896 87.6299 235.155C160.596 271.601 142.352 215.686 142.352 215.686Z" fill="url(#paint7_linear_360_5)"/>
<path d="M107.307 229.257C108.911 229.875 110.538 230.47 112.2 231.044C112.404 231.114 112.627 231.006 112.697 230.802C112.767 230.598 112.651 230.397 112.455 230.305C78.7269 218.656 57.1089 197.469 44.9169 181.748C31.7089 164.717 26.4149 150.272 26.3639 150.128C26.2909 149.924 26.0669 149.82 25.8649 149.893C25.6619 149.966 25.5569 150.19 25.6299 150.392C25.6829 150.537 31.0179 165.098 44.2999 182.226C55.9569 197.258 76.1849 217.26 107.307 229.257Z" fill="#1A2E9D"/>
<path d="M82.671 251.783C82.671 251.783 78.395 243.173 43.13 235.938C13.227 229.802 4.89001 223.596 6.65001 211.235C9.67801 189.972 61.671 200.98 97.057 250.348C109.847 268.192 82.671 251.783 82.671 251.783Z" fill="url(#paint8_linear_360_5)"/>
<path d="M96.4471 260.672C96.5541 260.681 96.6691 260.638 96.7651 260.541C96.9461 260.361 96.9881 260.062 96.8581 259.872C66.8021 216.102 21.0951 213.923 20.6431 213.894C20.4231 213.886 20.2141 214.091 20.1761 214.352C20.1371 214.614 20.2731 214.827 20.5031 214.84C20.9651 214.851 66.3431 217.043 96.2021 260.526C96.2641 260.616 96.3521 260.664 96.4471 260.672Z" fill="#1A2E9D"/>
<path d="M18.313 261.052H350.132" stroke="url(#paint9_linear_360_5)" stroke-miterlimit="10"/>
<path d="M290.091 275.276H67.2809C61.5309 275.276 56.8699 270.615 56.8699 264.865V101.458C56.8699 95.7079 61.5309 91.0469 67.2809 91.0469H290.091C295.841 91.0469 300.502 95.7079 300.502 101.458V264.865C300.502 270.615 295.841 275.276 290.091 275.276Z" fill="url(#paint10_linear_360_5)"/>
<path d="M56.8689 126.911H300.502V101.458C300.502 95.7079 295.841 91.0469 290.091 91.0469H67.2809C61.5309 91.0469 56.8699 95.7079 56.8699 101.458L56.8689 126.911Z" fill="url(#paint11_linear_360_5)"/>
<path d="M285.692 109.569C285.692 111.108 284.444 112.356 282.905 112.356C281.366 112.356 280.118 111.108 280.118 109.569C280.118 108.03 281.366 106.782 282.905 106.782C284.444 106.782 285.692 108.03 285.692 109.569Z" fill="#F7F5FC"/>
<path d="M274.855 109.569C274.855 111.108 273.607 112.356 272.068 112.356C270.529 112.356 269.281 111.108 269.281 109.569C269.281 108.03 270.529 106.782 272.068 106.782C273.607 106.782 274.855 108.03 274.855 109.569Z" fill="#F7F5FC"/>
<path d="M264.07 109.569C264.07 111.108 262.822 112.356 261.283 112.356C259.744 112.356 258.496 111.108 258.496 109.569C258.496 108.03 259.744 106.782 261.283 106.782C262.822 106.782 264.07 108.03 264.07 109.569Z" fill="#F7F5FC"/>
<path opacity="0.2" d="M252.077 165.466C251.687 165.076 251.289 164.697 250.886 164.325C250.833 164.276 250.779 164.227 250.726 164.179C250.593 164.057 250.455 163.941 250.321 163.822C250.104 163.63 249.887 163.437 249.667 163.249C249.556 163.155 249.445 163.061 249.333 162.968C249.18 162.841 249.025 162.717 248.87 162.593C248.722 162.474 248.574 162.355 248.424 162.238C248.25 162.102 248.075 161.967 247.9 161.834C247.745 161.717 247.59 161.599 247.434 161.484C247.345 161.419 247.254 161.358 247.164 161.294C246.922 161.12 246.678 160.947 246.432 160.778C246.167 160.596 245.9 160.417 245.63 160.242C245.416 160.103 245.201 159.966 244.984 159.831C244.933 159.799 244.882 159.767 244.831 159.735C244.575 159.577 244.318 159.42 244.058 159.268C243.904 159.178 243.75 159.09 243.595 159.002C243.577 158.992 243.558 158.982 243.54 158.972C243.53 158.967 243.521 158.961 243.511 158.956C243.48 158.938 243.447 158.921 243.416 158.904C243.098 158.726 242.781 158.548 242.459 158.378C242.279 158.284 242.097 158.196 241.916 158.104C241.557 157.922 241.198 157.739 240.833 157.569C240.832 157.569 240.832 157.569 240.832 157.568C240.527 157.425 240.217 157.293 239.908 157.158C239.83 157.124 239.752 157.088 239.674 157.054C239.332 156.908 238.988 156.768 238.641 156.631C238.47 156.563 238.299 156.498 238.127 156.433C237.8 156.309 237.473 156.186 237.142 156.071C236.931 155.997 236.716 155.93 236.504 155.86C236.001 155.694 235.495 155.538 234.984 155.393C234.71 155.315 234.436 155.238 234.161 155.165C233.896 155.096 233.629 155.029 233.362 154.966C233.039 154.889 232.715 154.817 232.389 154.748C232.166 154.701 231.944 154.65 231.72 154.606C231.199 154.505 230.675 154.415 230.149 154.334C229.946 154.303 229.743 154.278 229.539 154.25C229.157 154.198 228.775 154.15 228.39 154.109C228.179 154.086 227.968 154.064 227.756 154.045C227.337 154.007 226.917 153.977 226.495 153.951C226.435 153.947 226.375 153.942 226.314 153.939C226.159 153.931 226.005 153.923 225.85 153.916C225.8 153.914 225.749 153.914 225.699 153.912C225.167 153.889 224.635 153.874 224.099 153.874C223.442 153.874 222.788 153.89 222.137 153.922C221.845 153.936 221.557 153.965 221.266 153.985C220.908 154.01 220.549 154.029 220.193 154.064C219.823 154.1 219.456 154.152 219.089 154.198C218.817 154.232 218.543 154.258 218.272 154.298C217.842 154.361 217.417 154.441 216.99 154.518C216.786 154.555 216.579 154.584 216.376 154.624C215.898 154.718 215.425 154.829 214.952 154.94C214.804 154.975 214.655 155.003 214.507 155.04C213.989 155.168 213.475 155.313 212.963 155.463C212.865 155.492 212.765 155.515 212.667 155.545C212.123 155.708 211.585 155.887 211.05 156.074C211.048 156.075 211.045 156.075 211.042 156.076C210.981 156.097 210.919 156.115 210.858 156.137C210.289 156.338 209.727 156.555 209.169 156.782C209.141 156.794 209.112 156.803 209.084 156.815C208.505 157.053 207.931 157.305 207.364 157.57C207.357 157.573 207.351 157.576 207.344 157.579C206.713 157.874 206.088 158.183 205.472 158.513C205.234 158.64 205.002 158.781 204.767 158.913C204.767 158.913 204.766 158.913 204.766 158.914C204.681 158.962 204.596 159.011 204.511 159.059C203.986 159.359 203.468 159.672 202.956 159.997C202.875 160.048 202.795 160.099 202.714 160.15C202.35 160.385 201.99 160.626 201.633 160.873C201.515 160.955 201.398 161.038 201.281 161.121L201.28 161.122C200.849 161.427 200.424 161.741 200.004 162.065C199.992 162.074 199.98 162.084 199.967 162.094C199.394 162.537 198.833 162.996 198.282 163.473C198.199 163.545 198.115 163.616 198.032 163.689C197.771 163.918 197.511 164.149 197.255 164.386C196.95 164.667 196.649 164.954 196.352 165.246C196.276 165.32 196.197 165.39 196.122 165.465L179.173 182.414L178.721 182.866L161.32 165.465C153.847 157.992 143.912 153.877 133.344 153.877C122.776 153.877 112.841 157.992 105.367 165.465C105.34 165.492 105.316 165.52 105.289 165.547C105.288 165.548 105.288 165.548 105.287 165.549C97.6159 173.265 93.7859 183.381 93.7989 193.494C93.7989 193.505 93.7999 193.517 93.7999 193.528C93.8009 194.148 93.8159 194.769 93.8469 195.388C93.8489 195.421 93.8519 195.454 93.8539 195.488C93.8849 196.086 93.9269 196.683 93.9839 197.279C93.9889 197.329 93.9969 197.379 94.0019 197.43C94.0599 198.008 94.1279 198.586 94.2109 199.162C94.2229 199.247 94.2409 199.331 94.2539 199.415C94.3359 199.956 94.4239 200.497 94.5289 201.035C94.5499 201.142 94.5769 201.247 94.5979 201.353C94.7019 201.868 94.8109 202.382 94.9359 202.894C94.9689 203.03 95.0109 203.165 95.0449 203.301C95.1679 203.781 95.2919 204.26 95.4329 204.736C95.4799 204.894 95.5359 205.051 95.5849 205.209C95.7249 205.66 95.8639 206.111 96.0199 206.557C96.0849 206.743 96.1609 206.925 96.2279 207.11C96.3799 207.526 96.5309 207.942 96.6969 208.354C96.7819 208.563 96.8779 208.768 96.9669 208.976C97.1299 209.359 97.2889 209.744 97.4649 210.122C97.5719 210.352 97.6919 210.578 97.8029 210.807C97.9739 211.158 98.1409 211.512 98.3229 211.859C98.4539 212.108 98.5979 212.352 98.7349 212.599C98.9129 212.92 99.0839 213.244 99.2709 213.561C99.4299 213.829 99.6029 214.092 99.7679 214.357C99.9479 214.646 100.121 214.938 100.31 215.224C100.495 215.504 100.695 215.778 100.888 216.054C101.072 216.318 101.248 216.585 101.439 216.845C101.648 217.13 101.873 217.407 102.091 217.688C102.28 217.932 102.462 218.18 102.658 218.42C102.909 218.728 103.177 219.027 103.439 219.33C103.616 219.535 103.785 219.744 103.968 219.946C104.419 220.446 104.886 220.937 105.367 221.419C105.831 221.883 106.304 222.331 106.785 222.767C107.001 222.963 107.225 223.148 107.445 223.338C107.708 223.566 107.969 223.797 108.236 224.017L108.237 224.018C108.536 224.264 108.841 224.496 109.145 224.732C109.335 224.879 109.523 225.03 109.715 225.173C109.716 225.174 109.716 225.174 109.717 225.175C109.929 225.333 110.142 225.485 110.356 225.638L110.357 225.639C110.507 225.746 110.659 225.85 110.811 225.955C110.947 226.049 111.082 226.147 111.219 226.239C111.633 226.519 112.053 226.786 112.475 227.048C112.566 227.104 112.656 227.162 112.747 227.218C112.748 227.219 112.75 227.22 112.751 227.221C113.181 227.483 113.617 227.735 114.055 227.979C114.198 228.059 114.34 228.14 114.483 228.217C114.805 228.391 115.129 228.561 115.455 228.726C115.536 228.767 115.617 228.81 115.699 228.85C115.71 228.855 115.721 228.86 115.732 228.866C115.806 228.903 115.882 228.937 115.957 228.974C116.324 229.153 116.691 229.329 117.062 229.496C117.137 229.53 117.213 229.561 117.289 229.594C117.895 229.862 118.507 230.115 119.123 230.351C119.343 230.436 119.563 230.52 119.785 230.601C119.847 230.623 119.908 230.648 119.97 230.67C120.201 230.753 120.432 230.831 120.664 230.909C120.836 230.967 121.008 231.023 121.181 231.079C121.33 231.127 121.479 231.174 121.629 231.22C121.833 231.283 122.036 231.349 122.241 231.408C122.357 231.442 122.474 231.47 122.59 231.503C122.787 231.558 122.984 231.611 123.181 231.664C123.357 231.711 123.532 231.76 123.708 231.803C123.867 231.843 124.026 231.88 124.185 231.918C124.329 231.952 124.474 231.984 124.619 232.016C124.88 232.075 125.141 232.13 125.403 232.184C125.626 232.229 125.848 232.274 126.072 232.316C126.347 232.367 126.623 232.414 126.899 232.459C127.09 232.49 127.28 232.523 127.472 232.552C127.557 232.565 127.642 232.58 127.727 232.592C127.939 232.622 128.152 232.645 128.364 232.672C128.565 232.698 128.766 232.725 128.968 232.747C129.101 232.762 129.234 232.775 129.368 232.788C129.538 232.805 129.707 232.818 129.877 232.833C130.06 232.849 130.242 232.868 130.425 232.881C130.661 232.898 130.897 232.909 131.133 232.923C131.293 232.932 131.454 232.942 131.614 232.949C131.704 232.953 131.794 232.959 131.883 232.962C132.37 232.98 132.857 232.99 133.344 232.99C135.877 232.99 138.41 232.749 140.905 232.267C142.152 232.026 143.391 231.725 144.615 231.363C145.227 231.182 145.835 230.986 146.44 230.775C148.857 229.931 151.208 228.847 153.455 227.521C154.017 227.19 154.572 226.843 155.12 226.482C157.313 225.036 159.392 223.349 161.321 221.42L178.722 204.019L184.245 209.542L189.318 214.616L189.35 214.647L196.123 221.42C196.605 221.902 197.097 222.369 197.597 222.821C199.098 224.177 200.679 225.397 202.324 226.482C203.42 227.205 204.545 227.868 205.693 228.47C206.841 229.073 208.013 229.615 209.204 230.097C213.967 232.025 219.033 232.989 224.099 232.989C224.732 232.989 225.366 232.974 225.998 232.944C229.572 232.774 233.125 232.112 236.555 230.981C236.768 230.911 236.983 230.849 237.194 230.775C237.999 230.494 238.794 230.176 239.583 229.842C239.6 229.835 239.616 229.828 239.633 229.821C239.723 229.783 239.812 229.743 239.902 229.704C240.19 229.579 240.481 229.462 240.766 229.329C240.999 229.221 241.227 229.1 241.459 228.987C241.54 228.948 241.621 228.91 241.702 228.871C241.787 228.829 241.872 228.785 241.956 228.742C242.286 228.576 242.614 228.405 242.939 228.229C243.099 228.143 243.258 228.054 243.416 227.965C243.518 227.908 243.62 227.854 243.721 227.796C243.774 227.766 243.825 227.735 243.878 227.705C243.988 227.642 244.1 227.585 244.209 227.521C244.32 227.455 244.428 227.382 244.539 227.315C244.597 227.28 244.655 227.247 244.712 227.212C244.933 227.078 245.151 226.938 245.369 226.799C245.475 226.731 245.583 226.666 245.689 226.597C245.697 226.592 245.706 226.587 245.714 226.581C245.875 226.476 246.033 226.367 246.193 226.259C246.239 226.228 246.285 226.198 246.33 226.167C246.437 226.094 246.545 226.025 246.651 225.951C246.846 225.815 247.039 225.675 247.233 225.535C247.348 225.452 247.465 225.372 247.58 225.287C247.586 225.282 247.592 225.278 247.598 225.273C247.799 225.125 247.996 224.971 248.195 224.819C248.306 224.734 248.419 224.651 248.529 224.564C248.648 224.47 248.766 224.373 248.884 224.277C248.995 224.188 249.105 224.099 249.215 224.009C249.29 223.947 249.367 223.887 249.442 223.825C249.636 223.663 249.826 223.496 250.018 223.33C250.125 223.238 250.233 223.148 250.339 223.054C250.395 223.004 250.45 222.952 250.506 222.902C250.587 222.829 250.667 222.755 250.747 222.681C250.812 222.622 250.877 222.563 250.941 222.504C251.032 222.42 251.125 222.338 251.216 222.253C251.505 221.981 251.792 221.703 252.074 221.42C252.469 221.025 252.852 220.621 253.226 220.211C253.584 219.822 253.93 219.425 254.27 219.024C254.271 219.023 254.271 219.022 254.272 219.022C255.265 217.854 256.194 216.643 257.037 215.383C257.755 214.309 258.418 213.204 259.024 212.071C259.327 211.505 259.616 210.931 259.89 210.351C262.085 205.712 263.358 200.658 263.614 195.417C263.646 194.762 263.662 194.104 263.662 193.443C263.665 182.874 259.549 172.938 252.077 165.466ZM143.867 215.714C142.785 216.226 141.666 216.658 140.518 217.005C138.223 217.7 135.812 218.061 133.346 218.061C132.98 218.061 132.616 218.05 132.252 218.034C132.189 218.031 132.125 218.027 132.062 218.024C131.995 218.021 131.929 218.016 131.862 218.012C131.613 217.997 131.364 217.979 131.117 217.957C131.093 217.955 131.07 217.953 131.046 217.951C130.926 217.94 130.807 217.928 130.688 217.915C130.439 217.888 130.192 217.858 129.945 217.824C129.844 217.81 129.743 217.797 129.642 217.782C129.571 217.771 129.5 217.759 129.43 217.748C129.2 217.711 128.97 217.672 128.742 217.629C128.588 217.6 128.434 217.57 128.281 217.538C128.087 217.498 127.894 217.453 127.702 217.408C127.562 217.375 127.422 217.345 127.283 217.309C127.246 217.3 127.21 217.289 127.174 217.28C127.078 217.255 126.984 217.228 126.888 217.202C126.811 217.181 126.734 217.16 126.658 217.138C126.521 217.099 126.386 217.054 126.249 217.013C125.924 216.916 125.601 216.812 125.28 216.702C125.119 216.646 124.959 216.589 124.8 216.53C124.514 216.424 124.23 216.312 123.948 216.196C123.804 216.136 123.659 216.08 123.516 216.017C123.504 216.012 123.491 216.006 123.479 216.001C123.092 215.832 122.709 215.653 122.331 215.464C122.264 215.43 122.197 215.394 122.13 215.359C121.876 215.229 121.626 215.089 121.376 214.95C121.288 214.901 121.199 214.855 121.112 214.805C120.989 214.734 120.867 214.664 120.745 214.591C120.509 214.45 120.278 214.301 120.047 214.152C119.894 214.054 119.738 213.963 119.587 213.861C119.584 213.859 119.582 213.857 119.579 213.856C119.293 213.662 119.016 213.455 118.738 213.248C118.64 213.176 118.54 213.108 118.443 213.034C118.345 212.959 118.247 212.882 118.15 212.805C117.918 212.622 117.691 212.432 117.465 212.24C117.411 212.194 117.356 212.151 117.302 212.105C117.201 212.018 117.098 211.932 116.999 211.843C116.639 211.522 116.284 211.193 115.94 210.85C111.29 206.2 108.729 200.018 108.729 193.442C108.729 193.043 108.739 192.646 108.758 192.25C108.764 192.115 108.777 191.981 108.786 191.846C108.803 191.586 108.818 191.326 108.843 191.068C108.858 190.908 108.88 190.75 108.898 190.591C108.925 190.36 108.95 190.129 108.983 189.899C109.007 189.729 109.038 189.56 109.066 189.39C109.102 189.174 109.137 188.958 109.178 188.743C109.212 188.568 109.251 188.394 109.288 188.22C109.332 188.014 109.377 187.808 109.426 187.603C109.469 187.425 109.517 187.248 109.564 187.071C109.617 186.873 109.67 186.676 109.727 186.48C109.78 186.3 109.836 186.122 109.892 185.944C109.953 185.754 110.015 185.564 110.08 185.375C110.142 185.195 110.207 185.017 110.273 184.839C110.341 184.655 110.412 184.472 110.485 184.29C110.557 184.111 110.63 183.933 110.706 183.756C110.782 183.578 110.861 183.402 110.941 183.225C111.022 183.048 111.104 182.871 111.19 182.695C111.273 182.524 111.36 182.354 111.447 182.185C111.538 182.009 111.629 181.833 111.724 181.658C111.814 181.494 111.908 181.331 112.001 181.169C112.102 180.995 112.202 180.82 112.308 180.648C112.404 180.49 112.505 180.335 112.605 180.179C112.716 180.007 112.825 179.834 112.941 179.664C113.043 179.514 113.15 179.366 113.256 179.218C113.377 179.048 113.497 178.876 113.622 178.709C113.729 178.567 113.841 178.428 113.951 178.288C114.084 178.119 114.214 177.949 114.351 177.783C114.458 177.654 114.57 177.529 114.68 177.402C114.828 177.23 114.974 177.056 115.127 176.888C115.391 176.598 115.662 176.312 115.941 176.033C120.591 171.383 126.773 168.822 133.349 168.822C139.925 168.822 146.107 171.383 150.757 176.033L153.468 178.744H153.467L168.152 193.435L156.2 205.381L156.202 205.402L150.754 210.85C150.173 211.431 149.568 211.98 148.941 212.495C148.628 212.752 148.309 213.002 147.985 213.242C146.688 214.204 145.31 215.031 143.867 215.714ZM222.919 218.021C217.014 217.74 211.192 215.349 206.693 210.85L198.954 203.111L197.325 201.482L195.854 200.011L194.123 198.28L189.285 193.442L206.693 176.034C207.274 175.453 207.879 174.904 208.506 174.389C208.819 174.132 209.138 173.882 209.462 173.642C213.674 170.514 218.757 168.824 224.1 168.824C224.101 168.824 224.103 168.824 224.104 168.824C224.567 168.824 225.027 168.84 225.485 168.867C225.531 168.87 225.576 168.873 225.622 168.876C226.071 168.905 226.519 168.944 226.963 168.995C227.161 169.018 227.358 169.04 227.555 169.068C227.731 169.093 227.907 169.121 228.083 169.149C228.281 169.181 228.478 169.215 228.675 169.251C228.862 169.286 229.048 169.323 229.234 169.363C229.414 169.401 229.593 169.441 229.772 169.483C229.97 169.53 230.167 169.577 230.363 169.628C230.522 169.67 230.679 169.714 230.837 169.759C231.049 169.819 231.26 169.879 231.47 169.945C231.597 169.985 231.723 170.028 231.849 170.07C232.086 170.148 232.322 170.226 232.556 170.312C232.603 170.329 232.65 170.349 232.697 170.366C232.864 170.428 233.028 170.495 233.193 170.56C233.512 170.687 233.827 170.821 234.14 170.961C234.202 170.989 234.265 171.016 234.327 171.044C234.643 171.188 234.956 171.341 235.266 171.499C235.318 171.525 235.371 171.55 235.422 171.577C235.769 171.757 236.112 171.946 236.451 172.142C236.454 172.143 236.456 172.145 236.459 172.147C236.583 172.22 236.704 172.298 236.828 172.373C237.027 172.493 237.225 172.613 237.421 172.739C237.616 172.865 237.807 172.996 237.998 173.128C238.115 173.208 238.233 173.288 238.348 173.371C238.562 173.523 238.773 173.68 238.982 173.84C239.067 173.905 239.151 173.97 239.236 174.035C239.462 174.212 239.686 174.393 239.907 174.578C240.057 174.704 240.206 174.831 240.354 174.96C240.447 175.042 240.542 175.122 240.634 175.206C240.922 175.468 241.206 175.736 241.484 176.013C241.491 176.02 241.499 176.027 241.506 176.034C243.541 178.068 245.175 180.396 246.37 182.921C246.541 183.282 246.702 183.647 246.855 184.015C248.076 186.964 248.717 190.153 248.717 193.441C248.717 196.729 248.077 199.919 246.855 202.867C246.702 203.236 246.541 203.6 246.37 203.961C245.76 205.25 245.03 206.483 244.196 207.656C244.005 207.925 243.808 208.19 243.605 208.453C243.58 208.486 243.554 208.518 243.529 208.55C243.347 208.784 243.161 209.015 242.971 209.243C242.945 209.274 242.918 209.304 242.891 209.335C242.675 209.589 242.455 209.84 242.23 210.088C241.994 210.345 241.754 210.6 241.505 210.849C241.158 211.196 240.801 211.526 240.439 211.847C240.429 211.856 240.419 211.865 240.409 211.874C240.312 211.96 240.214 212.042 240.116 212.125C239.837 212.364 239.555 212.597 239.267 212.822C239.163 212.904 239.058 212.986 238.953 213.065C238.616 213.32 238.275 213.566 237.928 213.802C237.88 213.834 237.834 213.869 237.786 213.901C237.399 214.16 237.005 214.405 236.606 214.639C236.528 214.685 236.451 214.731 236.373 214.776C236.226 214.861 236.078 214.942 235.929 215.023C235.919 215.029 235.909 215.034 235.898 215.04C235.734 215.13 235.57 215.22 235.404 215.306C235.334 215.342 235.262 215.375 235.191 215.411C235.136 215.439 235.081 215.465 235.026 215.493C234.662 215.673 234.295 215.844 233.924 216.005C233.849 216.038 233.773 216.071 233.698 216.103C233.675 216.113 233.652 216.123 233.629 216.133C233.409 216.225 233.187 216.313 232.964 216.398C232.875 216.432 232.787 216.465 232.698 216.498C232.459 216.587 232.219 216.674 231.978 216.755C231.966 216.759 231.955 216.762 231.943 216.766C231.1 217.048 230.244 217.282 229.381 217.47C229.346 217.478 229.312 217.485 229.277 217.493C228.994 217.553 228.71 217.61 228.425 217.66C227.772 217.776 227.116 217.871 226.458 217.934C225.673 218.009 224.885 218.047 224.097 218.047C223.706 218.049 223.312 218.04 222.919 218.021Z" fill="black"/>
<path d="M256.162 216.405C248.268 224.299 237.773 228.646 226.609 228.646C215.445 228.646 204.95 224.299 197.056 216.405L178.675 198.024L160.294 216.405C152.4 224.299 141.905 228.646 130.741 228.646C119.577 228.646 109.082 224.299 101.188 216.405C84.8928 200.11 84.8928 173.595 101.188 157.3C109.336 149.152 120.038 145.079 130.74 145.079C141.442 145.079 152.145 149.153 160.293 157.3L178.674 175.681L197.056 157.3C205.204 149.152 215.906 145.079 226.608 145.079C237.31 145.079 248.013 149.153 256.161 157.3C264.055 165.194 268.402 175.689 268.402 186.853C268.403 198.016 264.056 208.511 256.162 216.405ZM149.131 168.464C144.219 163.552 137.689 160.847 130.742 160.847C123.796 160.847 117.265 163.552 112.353 168.464C107.441 173.376 104.736 179.906 104.736 186.852C104.736 193.798 107.441 200.329 112.353 205.241C117.265 210.153 123.795 212.858 130.741 212.858C137.688 212.858 144.218 210.153 149.13 205.241L167.519 186.852L149.131 168.464ZM167.519 186.852L149.13 168.463ZM244.998 168.464C234.859 158.324 218.36 158.324 208.221 168.464L189.832 186.853L208.221 205.242C213.133 210.154 219.663 212.859 226.61 212.859C233.556 212.859 240.087 210.154 244.998 205.242C249.91 200.33 252.615 193.799 252.615 186.853C252.615 179.906 249.91 173.375 244.998 168.464Z" fill="url(#paint12_linear_360_5)"/>
<path d="M130.742 145.078C120.04 145.078 109.337 149.152 101.19 157.299C93.8968 164.592 89.8788 173.932 89.1138 183.486L96.8328 191.346L104.863 184.267C105.448 178.297 108.056 172.761 112.354 168.464C117.266 163.552 123.797 160.847 130.743 160.847C137.689 160.847 144.22 163.552 149.132 168.464L155.549 174.881L164.743 161.747L160.296 157.3C152.147 149.152 141.444 145.078 130.742 145.078Z" fill="url(#paint13_linear_360_5)"/>
<path d="M189.832 186.852L194.342 182.342L182.43 171.926L178.676 175.68L162.135 159.139L149.579 158.378L150.237 169.569L167.519 186.851L165.682 188.688L177.173 199.525L178.676 198.022L197.057 216.403C197.205 216.551 197.36 216.688 197.509 216.833L205.064 202.082L189.832 186.852Z" fill="url(#paint14_linear_360_5)"/>
<path d="M268.234 183.146L252.615 186.829C252.615 186.837 252.615 186.845 252.615 186.853C252.615 193.799 249.91 200.33 244.998 205.242C240.086 210.154 233.556 212.859 226.61 212.859C219.663 212.859 213.133 210.154 208.221 205.242L203.027 200.048L192.928 201.183L194.277 213.626L197.057 216.406C204.951 224.3 215.447 228.647 226.61 228.647C237.773 228.647 248.269 224.3 256.163 216.406C264.057 208.512 268.404 198.017 268.404 186.853C268.403 185.607 268.341 184.372 268.234 183.146Z" fill="url(#paint15_linear_360_5)"/>
<path opacity="0.15" d="M191.732 188.756L180.326 199.635L165.327 184.6L176.67 173.673L191.732 188.756Z" fill="black"/>
<path d="M261.44 193.004L268.324 184.381C267.731 174.148 263.47 164.608 256.162 157.299C248.014 149.152 237.312 145.078 226.609 145.078C215.906 145.078 205.204 149.152 197.057 157.299L185.496 168.86L199.462 177.221L208.221 168.462C218.36 158.322 234.859 158.322 244.998 168.462C249.91 173.374 252.615 179.904 252.615 186.851C252.615 186.879 252.613 186.907 252.613 186.935L261.44 193.004Z" fill="url(#paint16_linear_360_5)"/>
<path d="M204.223 172.557L205.111 160.713L192.304 162.053L154.594 199.778L165.051 201.202L164.388 212.175L204.223 172.557Z" fill="url(#paint17_linear_360_5)"/>
<path opacity="0.5" d="M144.935 258.059H110.873C107.608 258.059 104.961 255.412 104.961 252.147C104.961 248.882 107.608 246.235 110.873 246.235H144.935C148.2 246.235 150.847 248.882 150.847 252.147C150.847 255.412 148.2 258.059 144.935 258.059Z" fill="url(#paint18_linear_360_5)"/>
<path opacity="0.5" d="M196.035 258.059H161.973C158.708 258.059 156.061 255.412 156.061 252.147C156.061 248.882 158.708 246.235 161.973 246.235H196.035C199.3 246.235 201.947 248.882 201.947 252.147C201.947 255.412 199.3 258.059 196.035 258.059Z" fill="url(#paint19_linear_360_5)"/>
<path opacity="0.5" d="M246.498 258.059H212.436C209.171 258.059 206.524 255.412 206.524 252.147C206.524 248.882 209.171 246.235 212.436 246.235H246.498C249.763 246.235 252.41 248.882 252.41 252.147C252.41 255.412 249.763 258.059 246.498 258.059Z" fill="url(#paint20_linear_360_5)"/>
<path d="M268.534 270.614L263.255 276.222L251.84 265.478L257.118 259.87L268.534 270.614Z" fill="url(#paint21_linear_360_5)"/>
<path d="M295.853 297L291.247 301.894C289.889 303.337 287.619 303.405 286.177 302.048L259.497 276.937C258.054 275.579 257.986 273.309 259.343 271.867L263.949 266.973C265.307 265.53 267.577 265.462 269.019 266.819L295.699 291.93C297.142 293.287 297.21 295.557 295.853 297Z" fill="url(#paint22_linear_360_5)"/>
<path d="M255.772 225.491C244.825 215.187 227.597 215.709 217.294 226.657C206.99 237.604 207.512 254.832 218.46 265.135C229.407 275.438 246.635 274.917 256.938 263.969C267.241 253.022 266.719 235.794 255.772 225.491ZM252.564 259.853C244.534 268.385 231.107 268.792 222.576 260.762C214.044 252.732 213.637 239.305 221.667 230.773C229.697 222.241 243.124 221.834 251.656 229.864C260.188 237.895 260.594 251.321 252.564 259.853Z" fill="url(#paint23_linear_360_5)"/>
<path d="M76.354 237.209C76.354 235.952 75.335 234.933 74.077 234.933H40.965C39.708 234.933 38.689 235.952 38.689 237.209V239.485V244.728V298.781C38.689 300.038 39.708 301.057 40.965 301.057H114.375C115.632 301.057 116.651 300.038 116.651 298.781V241.761C116.651 240.504 115.632 239.485 114.375 239.485H78.63C77.373 239.485 76.354 238.466 76.354 237.209Z" fill="url(#paint24_linear_360_5)"/>
<path d="M113.139 243.773H41.9829V301.057H113.139V243.773Z" fill="url(#paint25_linear_360_5)"/>
<path d="M75.543 251.189C75.543 253.129 73.97 254.701 72.031 254.701H42.201C40.261 254.701 38.689 256.274 38.689 258.213V297.546C38.689 299.486 40.261 301.058 42.201 301.058H113.139C115.079 301.058 116.651 299.486 116.651 297.546V257.979V254.701V251.189C116.651 249.249 115.079 247.677 113.139 247.677H79.055C77.116 247.676 75.543 249.249 75.543 251.189Z" fill="url(#paint26_linear_360_5)"/>
<path d="M291.599 183.54H360.902C363.111 183.54 364.903 185.331 364.903 187.54V238.583C364.903 240.792 363.112 242.584 360.902 242.584H291.599C289.39 242.584 287.599 240.793 287.599 238.583V187.54C287.598 185.331 289.389 183.54 291.599 183.54Z" fill="url(#paint27_linear_360_5)"/>
<path d="M323.842 218.892C323.804 218.892 323.766 218.886 323.728 218.871C323.561 218.808 323.476 218.622 323.539 218.455L327.158 208.793C327.221 208.625 327.404 208.538 327.575 208.604C327.742 208.667 327.827 208.853 327.764 209.02L324.145 218.682C324.096 218.812 323.973 218.892 323.842 218.892Z" fill="url(#paint28_linear_360_5)"/>
<path d="M322.071 216.423C322.029 216.423 321.988 216.415 321.947 216.398L316.383 214.087C316.234 214.025 316.232 213.814 316.381 213.749L321.869 211.377C322.032 211.306 322.223 211.381 322.294 211.546C322.365 211.71 322.29 211.9 322.125 211.971L318.039 213.738C317.891 213.802 317.892 214.013 318.042 214.075L322.195 215.8C322.36 215.869 322.438 216.058 322.37 216.223C322.318 216.348 322.198 216.423 322.071 216.423Z" fill="url(#paint29_linear_360_5)"/>
<path d="M328.904 216.423C328.946 216.423 328.987 216.415 329.028 216.398L334.592 214.087C334.741 214.025 334.743 213.814 334.594 213.749L329.106 211.377C328.943 211.306 328.752 211.381 328.681 211.546C328.61 211.71 328.685 211.9 328.85 211.971L332.936 213.738C333.084 213.802 333.083 214.013 332.934 214.075L328.781 215.8C328.616 215.869 328.538 216.058 328.606 216.223C328.657 216.348 328.777 216.423 328.904 216.423Z" fill="url(#paint30_linear_360_5)"/>
<path d="M343.406 218.03L341.667 217.221C340.909 216.869 340.441 216.071 340.548 215.242C340.695 214.111 340.715 212.956 340.598 211.797C340.512 210.945 341.041 210.149 341.845 209.856L343.22 209.354C344.21 208.993 344.719 207.897 344.358 206.907L343.581 204.779C343.22 203.789 342.124 203.28 341.134 203.641L339.363 204.287C338.589 204.569 337.736 204.312 337.212 203.677C336.615 202.954 335.955 202.293 335.245 201.701C334.619 201.179 334.364 200.336 334.638 199.569L335.489 197.183C335.843 196.191 335.326 195.099 334.333 194.745L332.199 193.984C331.207 193.63 330.115 194.147 329.761 195.14L329.099 196.996C328.805 197.819 327.99 198.345 327.121 198.251C326.304 198.163 325.475 198.142 324.642 198.19C323.816 198.238 323.063 197.715 322.779 196.938L322.211 195.382C321.849 194.392 320.754 193.883 319.764 194.244L317.636 195.021C316.646 195.382 316.137 196.478 316.498 197.468L317.062 199.014C317.347 199.796 317.109 200.687 316.443 201.186C315.941 201.562 315.466 201.968 315.019 202.398C314.382 203.013 313.398 203.091 312.66 202.602L311.543 201.863C310.664 201.282 309.48 201.522 308.899 202.401L307.649 204.29C307.067 205.169 307.308 206.353 308.187 206.934L309.913 208.076C310.582 208.519 310.886 209.329 310.715 210.112C310.476 211.208 310.358 212.336 310.37 213.477C310.378 214.3 309.893 215.046 309.12 215.329L307.348 215.976C306.358 216.337 305.848 217.433 306.21 218.423L306.987 220.551C307.348 221.541 308.444 222.05 309.434 221.689L310.809 221.187C311.614 220.893 312.531 221.161 313.014 221.869C313.668 222.826 314.423 223.692 315.257 224.459C315.87 225.022 316.025 225.931 315.674 226.687L314.851 228.456C314.406 229.411 314.821 230.546 315.776 230.991L317.83 231.947C318.785 232.391 319.92 231.977 320.365 231.022L321.136 229.364C321.491 228.601 322.305 228.148 323.136 228.281C324.206 228.453 325.301 228.511 326.403 228.447C327.229 228.399 327.981 228.923 328.265 229.7L328.833 231.255C329.194 232.245 330.29 232.754 331.28 232.393L333.408 231.616C334.398 231.255 334.907 230.159 334.546 229.169L333.978 227.613C333.694 226.836 333.933 225.951 334.595 225.456C335.474 224.799 336.269 224.055 336.973 223.241C337.523 222.605 338.437 222.428 339.198 222.782L340.841 223.546C341.796 223.99 342.931 223.576 343.376 222.621L344.332 220.567C344.775 219.609 344.361 218.475 343.406 218.03ZM330.013 225.103C323.6 227.444 316.503 224.143 314.162 217.73C311.821 211.317 315.122 204.22 321.535 201.879C327.948 199.538 335.045 202.839 337.385 209.252C339.727 215.666 336.426 222.762 330.013 225.103Z" fill="url(#paint31_linear_360_5)"/>
<path d="M155.243 46.7041H224.547C226.756 46.7041 228.547 48.4951 228.547 50.7051V101.748C228.547 103.957 226.756 105.749 224.547 105.749H155.243C153.034 105.749 151.242 103.958 151.242 101.748V50.7051C151.242 48.4951 153.033 46.7041 155.243 46.7041Z" fill="url(#paint32_linear_360_5)"/>
<path d="M203.445 64.48L192.693 60.853L182.895 70.397L172.908 67.622" stroke="url(#paint33_linear_360_5)" stroke-miterlimit="10"/>
<path d="M184.319 70.3092C184.228 71.1762 183.452 71.8042 182.585 71.7132C181.718 71.6222 181.09 70.8462 181.181 69.9792C181.272 69.1122 182.048 68.4842 182.914 68.5752C183.781 68.6672 184.41 69.4432 184.319 70.3092Z" fill="url(#paint34_linear_360_5)"/>
<path d="M174.304 67.6221C174.213 68.4891 173.437 69.1171 172.57 69.0261C171.703 68.9351 171.075 68.1592 171.166 67.2922C171.257 66.4262 172.033 65.7971 172.9 65.8881C173.767 65.9791 174.395 66.7561 174.304 67.6221Z" fill="url(#paint35_linear_360_5)"/>
<path d="M202.88 66.0583C203.752 66.0583 204.458 65.3519 204.458 64.4803C204.458 63.6088 203.752 62.9023 202.88 62.9023C202.008 62.9023 201.302 63.6088 201.302 64.4803C201.302 65.3519 202.008 66.0583 202.88 66.0583Z" fill="url(#paint36_linear_360_5)"/>
<path d="M194.262 61.0181C194.171 61.8851 193.395 62.5131 192.528 62.4231C191.661 62.3321 191.033 61.5561 191.124 60.6891C191.215 59.8221 191.991 59.1941 192.858 59.2851C193.724 59.3751 194.353 60.1511 194.262 61.0181Z" fill="url(#paint37_linear_360_5)"/>
<path d="M203.302 94.404C202.02 94.404 200.98 93.365 200.98 92.082V73.51C200.98 72.228 202.019 71.188 203.302 71.188C204.584 71.188 205.624 72.227 205.624 73.51V92.082C205.624 93.365 204.584 94.404 203.302 94.404Z" fill="url(#paint38_linear_360_5)"/>
<path d="M193.362 94.4041C192.08 94.4041 191.04 93.3651 191.04 92.0821V69.4831C191.04 68.2011 192.079 67.1621 193.362 67.1621C194.644 67.1621 195.683 68.2011 195.683 69.4831V92.0821C195.684 93.3651 194.644 94.4041 193.362 94.4041Z" fill="url(#paint39_linear_360_5)"/>
<path d="M182.937 94.4041C181.655 94.4041 180.615 93.3651 180.615 92.0821V78.1921C180.615 76.9101 181.654 75.8701 182.937 75.8701C184.219 75.8701 185.258 76.9091 185.258 78.1921V92.0821C185.259 93.3651 184.219 94.4041 182.937 94.4041Z" fill="url(#paint40_linear_360_5)"/>
<path d="M172.799 94.4042C171.517 94.4042 170.477 93.3652 170.477 92.0822V75.5642C170.477 74.2822 171.516 73.2422 172.799 73.2422C174.081 73.2422 175.121 74.2812 175.121 75.5642V92.0822C175.121 93.3652 174.082 94.4042 172.799 94.4042Z" fill="url(#paint41_linear_360_5)"/>

<defs>

<linearGradient id="paint0_linear_360_5" x1="179.645" y1="303.454" x2="181.778" y2="-30.6661" gradientUnits="userSpaceOnUse">
<stop stop-color="#3E51C9" stop-opacity="0.67"/>
<stop offset="0.2493" stop-color="#4153CA" stop-opacity="0.67"/>
<stop offset="0.3982" stop-color="#495BCC" stop-opacity="0.67"/>
<stop offset="0.5209" stop-color="#5768D0" stop-opacity="0.67"/>
<stop offset="0.6292" stop-color="#6B7AD6" stop-opacity="0.67"/>
<stop offset="0.7281" stop-color="#8692DD" stop-opacity="0.67"/>
<stop offset="0.8201" stop-color="#A6AFE6" stop-opacity="0.67"/>
<stop offset="0.9068" stop-color="#CCD1F1" stop-opacity="0.67"/>
<stop offset="0.9872" stop-color="#F7F8FD" stop-opacity="0.67"/>
<stop offset="1" stop-color="white" stop-opacity="0.67"/>
</linearGradient>
<linearGradient id="paint1_linear_360_5" x1="248.637" y1="301.516" x2="310.218" y2="301.516" gradientUnits="userSpaceOnUse">
<stop offset="0.0308" stop-color="#00006A"/>
<stop offset="1" stop-color="#00006A"/>
</linearGradient>
<linearGradient id="paint2_linear_360_5" x1="25.8409" y1="303.744" x2="128.774" y2="303.744" gradientUnits="userSpaceOnUse">
<stop offset="0.0308" stop-color="#00006A"/>
<stop offset="1" stop-color="#00006A"/>
</linearGradient>
<linearGradient id="paint3_linear_360_5" x1="36.6635" y1="271.201" x2="320.707" y2="271.201" gradientUnits="userSpaceOnUse">
<stop offset="0.0308" stop-color="#00006A"/>
<stop offset="1" stop-color="#00006A"/>
</linearGradient>
<linearGradient id="paint4_linear_360_5" x1="37.7144" y1="68.9561" x2="94.5766" y2="125.947" gradientUnits="userSpaceOnUse">
<stop stop-color="#D6E5FF"/>
<stop offset="0.306" stop-color="#DEEAFF"/>
<stop offset="1" stop-color="#ECF3FF"/>
</linearGradient>
<linearGradient id="paint5_linear_360_5" x1="267.891" y1="38.7355" x2="300.279" y2="75.2168" gradientUnits="userSpaceOnUse">
<stop stop-color="#D6E5FF"/>
<stop offset="0.306" stop-color="#DEEAFF"/>
<stop offset="1" stop-color="#ECF3FF"/>
</linearGradient>
<linearGradient id="paint6_linear_360_5" x1="292.225" y1="211.816" x2="341.94" y2="93.5792" gradientUnits="userSpaceOnUse">
<stop stop-color="#1A2E9D"/>
<stop offset="0.1973" stop-color="#3754B3"/>
<stop offset="0.5806" stop-color="#6B97DA"/>
<stop offset="0.8583" stop-color="#8CC2F2"/>
<stop offset="1" stop-color="#98D2FC"/>
</linearGradient>
<linearGradient id="paint7_linear_360_5" x1="135.109" y1="223.639" x2="-8.08643" y2="150.595" gradientUnits="userSpaceOnUse">
<stop stop-color="#1A2E9D"/>
<stop offset="0.1973" stop-color="#3754B3"/>
<stop offset="0.5806" stop-color="#6B97DA"/>
<stop offset="0.8583" stop-color="#8CC2F2"/>
<stop offset="1" stop-color="#98D2FC"/>
</linearGradient>
<linearGradient id="paint8_linear_360_5" x1="64.3382" y1="262.91" x2="48.0934" y2="191.21" gradientUnits="userSpaceOnUse">
<stop stop-color="#1A2E9D"/>
<stop offset="0.1973" stop-color="#3754B3"/>
<stop offset="0.5806" stop-color="#6B97DA"/>
<stop offset="0.8583" stop-color="#8CC2F2"/>
<stop offset="1" stop-color="#98D2FC"/>
</linearGradient>
<linearGradient id="paint9_linear_360_5" x1="-nan" y1="-nan" x2="-nan" y2="-nan" gradientUnits="userSpaceOnUse">
<stop stop-color="#93FFFF"/>
<stop offset="1" stop-color="#98D2FC"/>
</linearGradient>
<linearGradient id="paint10_linear_360_5" x1="120.182" y1="244.758" x2="287.409" y2="68.6885" gradientUnits="userSpaceOnUse">
<stop stop-color="#D6E5FF"/>
<stop offset="0.2471" stop-color="#DEEAFF"/>
<stop offset="0.8074" stop-color="#ECF3FF"/>
</linearGradient>
<linearGradient id="paint11_linear_360_5" x1="319.834" y1="121.534" x2="119.333" y2="104.306" gradientUnits="userSpaceOnUse">
<stop stop-color="#3A49C7"/>
<stop offset="1" stop-color="#25287B"/>
</linearGradient>
<linearGradient id="paint12_linear_360_5" x1="88.9676" y1="186.862" x2="268.403" y2="186.862" gradientUnits="userSpaceOnUse">
<stop stop-color="#3359FA"/>
<stop offset="1" stop-color="#5587F6"/>
</linearGradient>
<linearGradient id="paint13_linear_360_5" x1="89.1126" y1="168.212" x2="164.741" y2="168.212" gradientUnits="userSpaceOnUse">
<stop stop-color="#E4A64B"/>
<stop offset="0.857" stop-color="#F0DB70"/>
</linearGradient>
<linearGradient id="paint14_linear_360_5" x1="149.579" y1="187.607" x2="205.064" y2="187.607" gradientUnits="userSpaceOnUse">
<stop stop-color="#3359FA"/>
<stop offset="1" stop-color="#5587F6"/>
</linearGradient>
<linearGradient id="paint15_linear_360_5" x1="192.927" y1="205.896" x2="268.403" y2="205.896" gradientUnits="userSpaceOnUse">
<stop stop-color="#E4A64B"/>
<stop offset="0.857" stop-color="#F0DB70"/>
</linearGradient>
<linearGradient id="paint16_linear_360_5" x1="185.496" y1="169.041" x2="268.324" y2="169.041" gradientUnits="userSpaceOnUse">
<stop stop-color="#3359FA"/>
<stop offset="1" stop-color="#5587F6"/>
</linearGradient>
<linearGradient id="paint17_linear_360_5" x1="154.594" y1="186.444" x2="205.111" y2="186.444" gradientUnits="userSpaceOnUse">
<stop stop-color="#E4A64B"/>
<stop offset="0.857" stop-color="#F0DB70"/>
</linearGradient>
<linearGradient id="paint18_linear_360_5" x1="104.961" y1="252.147" x2="150.847" y2="252.147" gradientUnits="userSpaceOnUse">
<stop stop-color="#8093F9"/>
<stop offset="1" stop-color="#8CDCFD"/>
</linearGradient>
<linearGradient id="paint19_linear_360_5" x1="156.061" y1="252.147" x2="201.947" y2="252.147" gradientUnits="userSpaceOnUse">
<stop stop-color="#8093F9"/>
<stop offset="1" stop-color="#8CDCFD"/>
</linearGradient>
<linearGradient id="paint20_linear_360_5" x1="206.524" y1="252.147" x2="252.41" y2="252.147" gradientUnits="userSpaceOnUse">
<stop stop-color="#8093F9"/>
<stop offset="1" stop-color="#8CDCFD"/>
</linearGradient>
<linearGradient id="paint21_linear_360_5" x1="251.925" y1="268.296" x2="268.448" y2="267.795" gradientUnits="userSpaceOnUse">
<stop stop-color="#3A49C7"/>
<stop offset="1" stop-color="#25287B"/>
</linearGradient>
<linearGradient id="paint22_linear_360_5" x1="251.373" y1="295.655" x2="286.155" y2="280.771" gradientUnits="userSpaceOnUse">
<stop stop-color="#065BFE"/>
<stop offset="0.0885" stop-color="#1A6BFE"/>
<stop offset="0.4031" stop-color="#5EA2FD"/>
<stop offset="0.6311" stop-color="#88C5FC"/>
<stop offset="0.7474" stop-color="#98D2FC"/>
</linearGradient>
<linearGradient id="paint23_linear_360_5" x1="264.321" y1="246.227" x2="209.91" y2="244.398" gradientUnits="userSpaceOnUse">
<stop stop-color="#3359FA"/>
<stop offset="1" stop-color="#5587F6"/>
</linearGradient>
<linearGradient id="paint24_linear_360_5" x1="80.586" y1="267.995" x2="158.548" y2="267.995" gradientUnits="userSpaceOnUse">
<stop stop-color="#D39544"/>
<stop offset="0.857" stop-color="#F0DB70"/>
</linearGradient>
<linearGradient id="paint25_linear_360_5" x1="41.9832" y1="272.415" x2="113.139" y2="272.415" gradientUnits="userSpaceOnUse">
<stop offset="0.0617" stop-color="white"/>
<stop offset="1" stop-color="#E0E7EB"/>
</linearGradient>
<linearGradient id="paint26_linear_360_5" x1="38.6888" y1="274.367" x2="116.651" y2="274.367" gradientUnits="userSpaceOnUse">
<stop stop-color="#E4A64B"/>
<stop offset="0.857" stop-color="#F0DB70"/>
</linearGradient>
<linearGradient id="paint27_linear_360_5" x1="364.902" y1="213.062" x2="287.598" y2="213.062" gradientUnits="userSpaceOnUse">
<stop stop-color="#5587F6"/>
<stop offset="1" stop-color="#3359FA"/>
</linearGradient>
<linearGradient id="paint28_linear_360_5" x1="323.518" y1="213.737" x2="327.784" y2="213.737" gradientUnits="userSpaceOnUse">
<stop stop-color="#D6E5FF"/>
<stop offset="0.2471" stop-color="#DEEAFF"/>
<stop offset="0.8074" stop-color="#ECF3FF"/>
</linearGradient>
<linearGradient id="paint29_linear_360_5" x1="316.27" y1="213.887" x2="322.394" y2="213.887" gradientUnits="userSpaceOnUse">
<stop stop-color="#D6E5FF"/>
<stop offset="0.2471" stop-color="#DEEAFF"/>
<stop offset="0.8074" stop-color="#ECF3FF"/>
</linearGradient>
<linearGradient id="paint30_linear_360_5" x1="334.705" y1="213.887" x2="328.58" y2="213.887" gradientUnits="userSpaceOnUse">
<stop stop-color="#D6E5FF"/>
<stop offset="0.2471" stop-color="#DEEAFF"/>
<stop offset="0.8074" stop-color="#ECF3FF"/>
</linearGradient>
<linearGradient id="paint31_linear_360_5" x1="306.094" y1="213.19" x2="344.509" y2="213.19" gradientUnits="userSpaceOnUse">
<stop stop-color="#D6E5FF"/>
<stop offset="0.306" stop-color="#DEEAFF"/>
<stop offset="1" stop-color="#ECF3FF"/>
</linearGradient>
<linearGradient id="paint32_linear_360_5" x1="228.547" y1="76.2265" x2="151.242" y2="76.2265" gradientUnits="userSpaceOnUse">
<stop stop-color="#5587F6"/>
<stop offset="1" stop-color="#3359FA"/>
</linearGradient>
<linearGradient id="paint33_linear_360_5" x1="172.774" y1="65.6185" x2="203.605" y2="65.6185" gradientUnits="userSpaceOnUse">
<stop stop-color="#E4A64B"/>
<stop offset="0.857" stop-color="#F0DB70"/>
</linearGradient>
<linearGradient id="paint34_linear_360_5" x1="181.172" y1="70.1452" x2="184.328" y2="70.1452" gradientUnits="userSpaceOnUse">
<stop stop-color="#E4A64B"/>
<stop offset="0.857" stop-color="#F0DB70"/>
</linearGradient>
<linearGradient id="paint35_linear_360_5" x1="171.157" y1="67.4576" x2="174.313" y2="67.4576" gradientUnits="userSpaceOnUse">
<stop stop-color="#E4A64B"/>
<stop offset="0.857" stop-color="#F0DB70"/>
</linearGradient>
<linearGradient id="paint36_linear_360_5" x1="201.302" y1="64.4803" x2="204.458" y2="64.4803" gradientUnits="userSpaceOnUse">
<stop stop-color="#E4A64B"/>
<stop offset="0.857" stop-color="#F0DB70"/>
</linearGradient>
<linearGradient id="paint37_linear_360_5" x1="191.115" y1="60.8532" x2="194.271" y2="60.8532" gradientUnits="userSpaceOnUse">
<stop stop-color="#E4A64B"/>
<stop offset="0.857" stop-color="#F0DB70"/>
</linearGradient>
<linearGradient id="paint38_linear_360_5" x1="200.981" y1="82.7966" x2="205.624" y2="82.7966" gradientUnits="userSpaceOnUse">
<stop stop-color="#D6E5FF"/>
<stop offset="0.2471" stop-color="#DEEAFF"/>
<stop offset="0.8074" stop-color="#ECF3FF"/>
</linearGradient>
<linearGradient id="paint39_linear_360_5" x1="191.041" y1="80.7828" x2="195.684" y2="80.7828" gradientUnits="userSpaceOnUse">
<stop stop-color="#D6E5FF"/>
<stop offset="0.2471" stop-color="#DEEAFF"/>
<stop offset="0.8074" stop-color="#ECF3FF"/>
</linearGradient>
<linearGradient id="paint40_linear_360_5" x1="180.616" y1="85.1374" x2="185.259" y2="85.1374" gradientUnits="userSpaceOnUse">
<stop stop-color="#D6E5FF"/>
<stop offset="0.2471" stop-color="#DEEAFF"/>
<stop offset="0.8074" stop-color="#ECF3FF"/>
</linearGradient>
<linearGradient id="paint41_linear_360_5" x1="170.478" y1="83.8235" x2="175.121" y2="83.8235" gradientUnits="userSpaceOnUse">
<stop stop-color="#D6E5FF"/>
<stop offset="0.2471" stop-color="#DEEAFF"/>
<stop offset="0.8074" stop-color="#ECF3FF"/>
</linearGradient>
</defs>
</svg>
